<svg xmlns="http://www.w3.org/2000/svg" viewBox="0 0 78.86 14.74">
  <defs>
    <path id="b" d="M82.75 83.66h68.74v15.76H82.75z"/>
    <path id="a" d="M38.2 107.8h61.53v17.45H38.2z"/>
  </defs>
  <g aria-label="Image Compare" transform="translate(-64.12 -82.12)" style="shape-inside:url(#b)">
    <path d="M84.36 92.4h-.74v-7.41h.74zM85.93 92.4v-5.36h.71v.71l-.12-.15q.19-.33.5-.5.3-.18.72-.18.5 0 .88.25.37.26.53.76l-.18-.02q.16-.46.5-.73.35-.26.86-.26.44 0 .77.19.34.2.53.56.2.37.2.89v3.84h-.72v-3.77q0-.45-.25-.72-.26-.28-.68-.28-.43 0-.69.28-.25.27-.25.72v3.77h-.72v-3.77q0-.45-.26-.72-.25-.28-.67-.28-.43 0-.69.28-.26.27-.26.72v3.77zM94.4 92.52q-.74 0-1.15-.41-.4-.41-.4-1.04 0-.4.14-.65.14-.26.36-.42.23-.17.48-.26.3-.13.62-.2l.58-.15q.27-.08.43-.23.16-.14.16-.4v-.13q0-.45-.27-.72-.27-.28-.71-.28-.45 0-.71.28-.26.27-.26.72v.15h-.72v-.13q0-.78.47-1.26.46-.47 1.22-.47.5 0 .88.22t.6.6q.22.4.22.91v3.75h-.72v-.74l.12.15q-.19.34-.53.52-.34.19-.81.19zm.15-.69q.5 0 .79-.28.28-.28.28-.81v-.95q-.3.19-.67.26-.37.06-.7.17-.3.1-.5.29-.19.17-.19.5 0 .37.26.6.26.22.73.22zM99.1 94.2q-.75 0-1.22-.48t-.47-1.26v-.13h.72v.15q0 .45.26.73.26.28.7.28.46 0 .72-.28.27-.28.27-.73v-1.47l.13.16q-.19.3-.5.48-.3.17-.71.17-.44 0-.8-.19-.36-.2-.56-.58-.21-.39-.21-.94v-1.48q0-.55.2-.93.21-.39.57-.59.36-.2.8-.2.41 0 .72.18.3.18.49.48l-.13.17v-.7h.72v5.42q0 .53-.22.92-.22.4-.6.6-.38.23-.88.23zm.02-3.1q.46 0 .71-.26.25-.28.25-.73v-1.48q0-.45-.25-.72-.25-.28-.7-.28-.47 0-.73.28-.25.27-.25.72v1.48q0 .45.25.72.26.28.72.28zM103.74 92.52q-.5 0-.88-.22t-.6-.6q-.22-.4-.22-.93v-2.12q0-.51.22-.9.22-.4.6-.61.38-.22.88-.22.76 0 1.22.47.47.48.47 1.26v1.17h-2.81v-.69h2.09v-.5q0-.45-.26-.72-.26-.28-.7-.28-.46 0-.72.28-.27.27-.27.72v2.17q0 .45.27.72.26.28.71.28.45 0 .7-.28.27-.27.27-.72v-.13h.72v.1q0 .78-.47 1.27-.46.48-1.22.48zM112.32 90.48v.25q0 .82-.48 1.32-.48.5-1.28.5-.79 0-1.27-.5t-.48-1.32v-4.07q0-.83.48-1.32.48-.5 1.27-.5.8 0 1.28.5t.48 1.32v.25h-.75v-.25q0-.49-.27-.79-.28-.3-.74-.3-.46 0-.73.3-.28.3-.28.79v4.07q0 .49.28.79.27.3.73.3.46 0 .74-.3.27-.3.27-.8v-.24zM115.01 92.52q-.5 0-.88-.22t-.6-.6q-.22-.4-.22-.93v-2.12q0-.51.22-.9.22-.4.6-.61.38-.22.88-.22.76 0 1.22.47.47.48.47 1.26v2.12q0 .78-.47 1.27-.46.48-1.22.48zm0-.72q.45 0 .7-.28.27-.27.27-.72v-2.17q0-.45-.26-.72-.26-.28-.7-.28-.46 0-.72.28-.27.27-.27.72v2.17q0 .45.27.72.26.28.71.28zM117.95 92.4v-5.36h.72v.71l-.12-.15q.18-.33.49-.5.3-.18.72-.18.5 0 .88.25.38.26.53.76l-.17-.02q.15-.46.5-.73.35-.26.86-.26.43 0 .77.19.33.2.52.56.2.37.2.89v3.84h-.71v-3.77q0-.45-.26-.72-.25-.28-.67-.28-.43 0-.7.28-.25.27-.25.72v3.77h-.72v-3.77q0-.45-.25-.72-.26-.28-.68-.28-.42 0-.69.28-.25.27-.25.72v3.77zM125.2 94.18v-7.14h.71v.7l-.12-.17q.18-.3.48-.48.3-.17.73-.17.44 0 .8.2.35.2.56.58.2.38.2.93v2.17q0 .56-.2.94-.21.39-.57.58-.35.2-.79.2-.42 0-.73-.18-.3-.17-.48-.48l.12-.16v2.48zm1.67-2.38q.46 0 .72-.28.26-.27.26-.72v-2.17q0-.45-.26-.72-.26-.28-.72-.28-.45 0-.7.28-.26.27-.26.72v2.17q0 .45.25.73.26.27.71.27zM131.05 92.52q-.74 0-1.15-.41-.4-.41-.4-1.04 0-.4.14-.65.14-.26.37-.42.22-.17.48-.26.3-.13.6-.2l.6-.15q.26-.08.42-.23.16-.14.16-.4v-.13q0-.45-.27-.72-.27-.28-.71-.28-.45 0-.71.28-.26.27-.26.72v.15h-.71v-.13q0-.78.46-1.26.46-.47 1.22-.47.5 0 .88.22t.6.6q.22.4.22.91v3.75h-.72v-.74l.12.15q-.19.34-.53.52-.34.19-.81.19zm.15-.69q.5 0 .79-.28.28-.28.28-.81v-.95q-.3.19-.67.26-.37.06-.7.17-.3.1-.5.29-.19.17-.19.5 0 .37.26.6.26.22.73.22zM134.31 92.4v-5.36h.72v.77l-.12-.15q.18-.33.5-.5.3-.19.72-.19h.23v.72h-.38q-.43 0-.7.27-.25.26-.25.71v3.73zM138.64 92.52q-.5 0-.88-.22t-.6-.6q-.21-.4-.21-.93v-2.12q0-.51.21-.9.22-.4.6-.61.38-.22.88-.22.76 0 1.22.47.47.48.47 1.26v1.17h-2.81v-.69h2.1v-.5q0-.45-.27-.72-.26-.28-.7-.28-.46 0-.72.28-.27.27-.27.72v2.17q0 .45.27.72.26.28.71.28.45 0 .71-.28.26-.27.26-.72v-.13h.72v.1q0 .78-.47 1.27-.46.48-1.22.48z" style="shape-inside:url(#b)"/>
  </g>
  <path d="M10.6 8.06 8.96 3.2a.74.74 0 0 0-.93-.46L3.14 4.38a.74.74 0 0 0-.46.94l1.66 4.87c.13.38.55.59.93.46l4.88-1.66a.74.74 0 0 0 .46-.93zm-5-.43 1.23.75.69-1.99 2.27 1.56-4.87 1.66z" fill="#56b4e9"/>
  <path d="m16.25 10.1 1.47-5.02a.75.75 0 0 0-.5-.93l-5.03-1.47a.75.75 0 0 0-.93.5L9.78 8.21c-.11.4.12.81.51.93l5.03 1.48c.4.11.8-.12.93-.51zm-3.91-3.29.58 1.35 1.73-1.25.98 2.63-5.02-1.48z" fill="#d55e00"/>
</svg>
