<?xml version="1.0" encoding="UTF-8" standalone="no"?>
<svg
   xmlns:dc="http://purl.org/dc/elements/1.1/"
   xmlns:cc="http://creativecommons.org/ns#"
   xmlns:rdf="http://www.w3.org/1999/02/22-rdf-syntax-ns#"
   xmlns:svg="http://www.w3.org/2000/svg"
   xmlns="http://www.w3.org/2000/svg"
   xmlns:sodipodi="http://sodipodi.sourceforge.net/DTD/sodipodi-0.dtd"
   xmlns:inkscape="http://www.inkscape.org/namespaces/inkscape"
   width="298.04779"
   height="55.693958"
   viewBox="0 0 78.858475 14.735695"
   version="1.1"
   id="svg8"
   inkscape:version="1.0.2 (e86c870879, 2021-01-15)"
   sodipodi:docname="imcomp-logo-large.svg"
   inkscape:export-filename="/home/tlm/my/ox/vai/project/002-imcomp/logo/v2/imcomp-logo-large.png"
   inkscape:export-xdpi="96"
   inkscape:export-ydpi="96">
  <defs
     id="defs2">
    <rect
       x="82.746864"
       y="83.657761"
       width="68.739723"
       height="15.757193"
       id="rect867" />
    <rect
       x="38.20005"
       y="107.80362"
       width="61.532257"
       height="17.445099"
       id="rect1722" />
    <rect
       x="-473.40698"
       y="-253.13364"
       width="118.7565"
       height="35.959091"
       id="rect835" />
    <rect
       x="-473.40698"
       y="-253.13364"
       width="74.48246"
       height="19.928907"
       id="rect835-2" />
    <rect
       x="-473.40698"
       y="-253.13364"
       width="118.7565"
       height="35.959091"
       id="rect848" />
    <rect
       x="-473.40698"
       y="-253.13364"
       width="118.7565"
       height="35.959091"
       id="rect835-6" />
    <rect
       x="-473.40698"
       y="-253.13364"
       width="118.7565"
       height="35.959091"
       id="rect1532" />
    <rect
       x="-473.40698"
       y="-253.13364"
       width="74.48246"
       height="19.928907"
       id="rect835-2-3" />
    <rect
       x="-473.40698"
       y="-253.13364"
       width="74.48246"
       height="19.928907"
       id="rect1535" />
    <rect
       x="-473.40698"
       y="-253.13364"
       width="118.7565"
       height="35.959091"
       id="rect835-9" />
    <rect
       x="-473.40698"
       y="-253.13364"
       width="118.7565"
       height="35.959091"
       id="rect1674" />
    <rect
       x="-473.40698"
       y="-253.13364"
       width="118.7565"
       height="35.959091"
       id="rect835-4" />
    <rect
       x="-473.40698"
       y="-253.13364"
       width="118.7565"
       height="35.959091"
       id="rect1735" />
    <rect
       x="-473.40698"
       y="-253.13364"
       width="74.48246"
       height="19.928907"
       id="rect835-2-1" />
    <rect
       x="-473.40698"
       y="-253.13364"
       width="74.48246"
       height="19.928907"
       id="rect1738" />
    <rect
       x="-473.40698"
       y="-253.13364"
       width="118.7565"
       height="35.959091"
       id="rect835-4-9" />
    <rect
       x="-473.40698"
       y="-253.13364"
       width="118.7565"
       height="35.959091"
       id="rect1857" />
    <rect
       x="-473.40698"
       y="-253.13364"
       width="74.48246"
       height="19.928907"
       id="rect835-2-1-0" />
    <rect
       x="-473.40698"
       y="-253.13364"
       width="74.48246"
       height="19.928907"
       id="rect1860" />
    <rect
       x="-473.40698"
       y="-253.13364"
       width="118.7565"
       height="35.959091"
       id="rect835-4-9-1" />
    <rect
       x="-473.40698"
       y="-253.13364"
       width="118.7565"
       height="35.959091"
       id="rect2097" />
    <rect
       x="-473.40698"
       y="-253.13364"
       width="74.48246"
       height="19.928907"
       id="rect835-2-1-0-2" />
    <rect
       x="-473.40698"
       y="-253.13364"
       width="74.48246"
       height="19.928907"
       id="rect2100" />
    <rect
       x="-473.40698"
       y="-253.13364"
       width="118.7565"
       height="35.959091"
       id="rect835-4-9-1-4" />
    <rect
       x="-473.40698"
       y="-253.13364"
       width="118.7565"
       height="35.959091"
       id="rect2246" />
    <rect
       x="-473.40698"
       y="-253.13364"
       width="74.48246"
       height="19.928907"
       id="rect835-2-1-0-2-0" />
    <rect
       x="-473.40698"
       y="-253.13364"
       width="74.48246"
       height="19.928907"
       id="rect2249" />
    <rect
       x="-473.40698"
       y="-253.13364"
       width="118.7565"
       height="35.959091"
       id="rect835-4-9-1-4-9" />
    <rect
       x="-473.40698"
       y="-253.13364"
       width="118.7565"
       height="35.959091"
       id="rect2356" />
    <rect
       x="-473.40698"
       y="-253.13364"
       width="74.48246"
       height="19.928907"
       id="rect835-2-1-0-2-0-2" />
    <rect
       x="-473.40698"
       y="-253.13364"
       width="74.48246"
       height="19.928907"
       id="rect2359" />
  </defs>
  <sodipodi:namedview
     id="base"
     pagecolor="#ffffff"
     bordercolor="#666666"
     borderopacity="1.0"
     inkscape:pageopacity="1"
     inkscape:pageshadow="2"
     inkscape:zoom="2"
     inkscape:cx="249.81622"
     inkscape:cy="-90.630081"
     inkscape:document-units="mm"
     inkscape:current-layer="layer1"
     inkscape:document-rotation="0"
     showgrid="false"
     inkscape:window-width="2560"
     inkscape:window-height="1416"
     inkscape:window-x="3840"
     inkscape:window-y="0"
     inkscape:window-maximized="1"
     fit-margin-top="10"
     fit-margin-left="10"
     fit-margin-bottom="10"
     fit-margin-right="10"
     units="px">
    <inkscape:grid
       type="xygrid"
       id="grid1369"
       originx="2.0114119"
       originy="-6.9561746" />
  </sodipodi:namedview>
  <metadata
     id="metadata5">
    <rdf:RDF>
      <cc:Work
         rdf:about="">
        <dc:format>image/svg+xml</dc:format>
        <dc:type
           rdf:resource="http://purl.org/dc/dcmitype/StillImage" />
        <dc:title></dc:title>
      </cc:Work>
    </rdf:RDF>
  </metadata>
  <g
     inkscape:label="Layer 1"
     inkscape:groupmode="layer"
     id="layer1"
     transform="translate(-54.874186,-85.981787)">
    <text
       xml:space="preserve"
       id="text1720"
       style="font-style:normal;font-weight:normal;font-size:10.5833px;line-height:1.25;font-family:sans-serif;letter-spacing:0px;word-spacing:0px;white-space:pre;shape-inside:url(#rect1722);fill:#000000;fill-opacity:1;stroke:none;" />
    <text
       xml:space="preserve"
       id="text865"
       style="font-style:normal;font-weight:normal;font-size:9.87778px;line-height:1.25;font-family:sans-serif;letter-spacing:0px;word-spacing:0px;white-space:pre;shape-inside:url(#rect867);fill:#000000;fill-opacity:1;stroke:none;"
       transform="translate(-9.2416625,3.8662905)"><tspan
         x="82.746094"
         y="92.397723"><tspan
           style="font-style:normal;font-variant:normal;font-weight:normal;font-stretch:normal;font-size:9.87778px;font-family:Mohave;-inkscape-font-specification:Mohave;shape-inside:url(#rect867)">Image Compare</tspan></tspan></text>
    <path
       d="m 65.48109,94.042921 -1.656112,-4.873548 c -0.13012,-0.382947 -0.549907,-0.589759 -0.932828,-0.459636 l -4.873568,1.65612 c -0.382925,0.130119 -0.589757,0.549867 -0.459623,0.932814 l 1.656111,4.873548 c 0.130119,0.382904 0.549878,0.589759 0.932802,0.459636 l 4.873568,-1.65612 c 0.382923,-0.13012 0.589768,-0.54991 0.45965,-0.932814 z m -5.00201,-0.43594 1.226333,0.752088 0.684894,-1.984015 2.276255,1.556356 -4.873568,1.65612 z"
       id="path1139-2-5-6-8-7-0"
       style="fill:#56b4e9;fill-opacity:1;stroke-width:0.367661" />
    <g
       id="g937"
       transform="matrix(0.76323144,0.22435636,-0.22435636,0.76323144,70.586132,0.77442398)">
      <path
         d="m 34.434098,114.76264 v -6.58517 c 0,-0.51742 -0.423334,-0.94073 -0.940742,-0.94073 h -6.585184 c -0.517408,0 -0.940741,0.42332 -0.940741,0.94073 v 6.58517 c 0,0.51742 0.423333,0.94075 0.940741,0.94075 h 6.585184 c 0.517408,0 0.940742,-0.42334 0.940742,-0.94075 z m -5.879631,-2.58702 1.175928,1.41582 1.646295,-2.12138 2.116666,2.82224 h -6.585184 z"
         id="path1139-2-5-6-0-0"
         style="fill:#d55e00;fill-opacity:1;stroke-width:0.47037" />
    </g>
  </g>
</svg>
