<?xml version="1.0" encoding="UTF-8" standalone="no"?>
<svg
   xmlns:dc="http://purl.org/dc/elements/1.1/"
   xmlns:cc="http://creativecommons.org/ns#"
   xmlns:rdf="http://www.w3.org/1999/02/22-rdf-syntax-ns#"
   xmlns:svg="http://www.w3.org/2000/svg"
   xmlns="http://www.w3.org/2000/svg"
   xmlns:sodipodi="http://sodipodi.sourceforge.net/DTD/sodipodi-0.dtd"
   xmlns:inkscape="http://www.inkscape.org/namespaces/inkscape"
   width="183.26891"
   height="41.363304"
   viewBox="0 0 48.489896 10.944042"
   version="1.1"
   id="svg8"
   inkscape:version="1.0.2 (e86c870879, 2021-01-15)"
   sodipodi:docname="imcomp-logo-small.svg"
   inkscape:export-filename="/home/tlm/my/ox/vai/project/002-imcomp/logo/imcomp-logo.png"
   inkscape:export-xdpi="96"
   inkscape:export-ydpi="96">
  <defs
     id="defs2">
    <rect
       x="82.746864"
       y="83.657761"
       width="35.427677"
       height="7.4473152"
       id="rect867" />
    <rect
       x="38.20005"
       y="107.80362"
       width="61.532257"
       height="17.445099"
       id="rect1722" />
    <rect
       x="-473.40698"
       y="-253.13364"
       width="118.7565"
       height="35.959091"
       id="rect835" />
    <rect
       x="-473.40698"
       y="-253.13364"
       width="74.48246"
       height="19.928907"
       id="rect835-2" />
    <rect
       x="-473.40698"
       y="-253.13364"
       width="118.7565"
       height="35.959091"
       id="rect848" />
    <rect
       x="-473.40698"
       y="-253.13364"
       width="118.7565"
       height="35.959091"
       id="rect835-6" />
    <rect
       x="-473.40698"
       y="-253.13364"
       width="118.7565"
       height="35.959091"
       id="rect1532" />
    <rect
       x="-473.40698"
       y="-253.13364"
       width="74.48246"
       height="19.928907"
       id="rect835-2-3" />
    <rect
       x="-473.40698"
       y="-253.13364"
       width="74.48246"
       height="19.928907"
       id="rect1535" />
    <rect
       x="-473.40698"
       y="-253.13364"
       width="118.7565"
       height="35.959091"
       id="rect835-9" />
    <rect
       x="-473.40698"
       y="-253.13364"
       width="118.7565"
       height="35.959091"
       id="rect1674" />
    <rect
       x="-473.40698"
       y="-253.13364"
       width="118.7565"
       height="35.959091"
       id="rect835-4" />
    <rect
       x="-473.40698"
       y="-253.13364"
       width="118.7565"
       height="35.959091"
       id="rect1735" />
    <rect
       x="-473.40698"
       y="-253.13364"
       width="74.48246"
       height="19.928907"
       id="rect835-2-1" />
    <rect
       x="-473.40698"
       y="-253.13364"
       width="74.48246"
       height="19.928907"
       id="rect1738" />
    <rect
       x="-473.40698"
       y="-253.13364"
       width="118.7565"
       height="35.959091"
       id="rect835-4-9" />
    <rect
       x="-473.40698"
       y="-253.13364"
       width="118.7565"
       height="35.959091"
       id="rect1857" />
    <rect
       x="-473.40698"
       y="-253.13364"
       width="74.48246"
       height="19.928907"
       id="rect835-2-1-0" />
    <rect
       x="-473.40698"
       y="-253.13364"
       width="74.48246"
       height="19.928907"
       id="rect1860" />
    <rect
       x="-473.40698"
       y="-253.13364"
       width="118.7565"
       height="35.959091"
       id="rect835-4-9-1" />
    <rect
       x="-473.40698"
       y="-253.13364"
       width="118.7565"
       height="35.959091"
       id="rect2097" />
    <rect
       x="-473.40698"
       y="-253.13364"
       width="74.48246"
       height="19.928907"
       id="rect835-2-1-0-2" />
    <rect
       x="-473.40698"
       y="-253.13364"
       width="74.48246"
       height="19.928907"
       id="rect2100" />
    <rect
       x="-473.40698"
       y="-253.13364"
       width="118.7565"
       height="35.959091"
       id="rect835-4-9-1-4" />
    <rect
       x="-473.40698"
       y="-253.13364"
       width="118.7565"
       height="35.959091"
       id="rect2246" />
    <rect
       x="-473.40698"
       y="-253.13364"
       width="74.48246"
       height="19.928907"
       id="rect835-2-1-0-2-0" />
    <rect
       x="-473.40698"
       y="-253.13364"
       width="74.48246"
       height="19.928907"
       id="rect2249" />
    <rect
       x="-473.40698"
       y="-253.13364"
       width="118.7565"
       height="35.959091"
       id="rect835-4-9-1-4-9" />
    <rect
       x="-473.40698"
       y="-253.13364"
       width="118.7565"
       height="35.959091"
       id="rect2356" />
    <rect
       x="-473.40698"
       y="-253.13364"
       width="74.48246"
       height="19.928907"
       id="rect835-2-1-0-2-0-2" />
    <rect
       x="-473.40698"
       y="-253.13364"
       width="74.48246"
       height="19.928907"
       id="rect2359" />
  </defs>
  <sodipodi:namedview
     id="base"
     pagecolor="#ffffff"
     bordercolor="#666666"
     borderopacity="1.0"
     inkscape:pageopacity="1"
     inkscape:pageshadow="2"
     inkscape:zoom="4"
     inkscape:cx="92.250109"
     inkscape:cy="10.992435"
     inkscape:document-units="mm"
     inkscape:current-layer="layer1"
     inkscape:document-rotation="0"
     showgrid="false"
     inkscape:window-width="2560"
     inkscape:window-height="1416"
     inkscape:window-x="3840"
     inkscape:window-y="0"
     inkscape:window-maximized="1"
     fit-margin-top="10"
     fit-margin-left="10"
     fit-margin-bottom="10"
     fit-margin-right="10"
     units="px">
    <inkscape:grid
       type="xygrid"
       id="grid1369"
       originx="1.8015144"
       originy="1.3538137" />
  </sodipodi:namedview>
  <metadata
     id="metadata5">
    <rdf:RDF>
      <cc:Work
         rdf:about="">
        <dc:format>image/svg+xml</dc:format>
        <dc:type
           rdf:resource="http://purl.org/dc/dcmitype/StillImage" />
        <dc:title></dc:title>
      </cc:Work>
    </rdf:RDF>
  </metadata>
  <g
     inkscape:label="Layer 1"
     inkscape:groupmode="layer"
     id="layer1"
     transform="translate(-55.084084,-77.6718)">
    <text
       xml:space="preserve"
       id="text1720"
       style="font-style:normal;font-weight:normal;font-size:10.5833px;line-height:1.25;font-family:sans-serif;letter-spacing:0px;word-spacing:0px;white-space:pre;shape-inside:url(#rect1722);fill:#000000;fill-opacity:1;stroke:none;" />
    <text
       xml:space="preserve"
       id="text865"
       style="font-style:normal;font-weight:normal;font-size:5.64444px;line-height:1.25;font-family:sans-serif;letter-spacing:0px;word-spacing:0px;white-space:pre;shape-inside:url(#rect867);fill:#000000;fill-opacity:1;stroke:none;"
       transform="translate(-14.722142,-3.7151348)"><tspan
         x="82.746094"
         y="88.65221"><tspan
           style="font-style:normal;font-variant:normal;font-weight:normal;font-stretch:normal;font-family:Mohave;-inkscape-font-specification:Mohave;shape-inside:url(#rect867)">Image Compare</tspan></tspan></text>
    <g
       id="g879"
       transform="translate(-18.100486,-1.8492563)">
      <path
         d="m 80.844326,85.550279 -1.043028,-3.069386 c -0.08195,-0.241182 -0.346334,-0.371433 -0.5875,-0.289481 L 76.1444,83.234445 c -0.241168,0.08195 -0.371432,0.346309 -0.289473,0.587491 l 1.043027,3.069386 c 0.08195,0.241155 0.346316,0.371433 0.587484,0.289481 l 3.069398,-1.043033 c 0.241167,-0.08195 0.371439,-0.346336 0.28949,-0.587491 z m -3.150292,-0.274557 0.772351,0.473669 0.43135,-1.249543 1.433597,0.980201 -3.069398,1.043033 z"
         id="path1139-2-5-6-8-7-0"
         style="fill:#56b4e9;fill-opacity:1;stroke-width:0.231555" />
      <g
         id="g937"
         transform="matrix(0.47231852,0.1388408,-0.1388408,0.47231852,84.003532,27.831957)">
        <path
           d="m 34.434098,114.76264 v -6.58517 c 0,-0.51742 -0.423334,-0.94073 -0.940742,-0.94073 h -6.585184 c -0.517408,0 -0.940741,0.42332 -0.940741,0.94073 v 6.58517 c 0,0.51742 0.423333,0.94075 0.940741,0.94075 h 6.585184 c 0.517408,0 0.940742,-0.42334 0.940742,-0.94075 z m -5.879631,-2.58702 1.175928,1.41582 1.646295,-2.12138 2.116666,2.82224 h -6.585184 z"
           id="path1139-2-5-6-0-0"
           style="fill:#d55e00;fill-opacity:1;stroke-width:0.47037" />
      </g>
    </g>
  </g>
</svg>
