<?xml version="1.0" encoding="UTF-8" standalone="no"?>
<svg
   xmlns:dc="http://purl.org/dc/elements/1.1/"
   xmlns:cc="http://creativecommons.org/ns#"
   xmlns:rdf="http://www.w3.org/1999/02/22-rdf-syntax-ns#"
   xmlns:svg="http://www.w3.org/2000/svg"
   xmlns="http://www.w3.org/2000/svg"
   xmlns:sodipodi="http://sodipodi.sourceforge.net/DTD/sodipodi-0.dtd"
   xmlns:inkscape="http://www.inkscape.org/namespaces/inkscape"
   width="298.04779"
   height="55.693958"
   viewBox="0 0 78.858475 14.735695"
   version="1.1"
   id="svg8"
   inkscape:version="1.0.2 (e86c870879, 2021-01-15)"
   sodipodi:docname="imcomp-logo-large.svg"
   inkscape:export-filename="/home/tlm/my/ox/vai/project/002-imcomp/logo/v2/imcomp-logo-large.png"
   inkscape:export-xdpi="96"
   inkscape:export-ydpi="96">
  <defs
     id="defs2">
    <rect
       x="82.746864"
       y="83.657761"
       width="68.739723"
       height="15.757193"
       id="rect867" />
    <rect
       x="38.20005"
       y="107.80362"
       width="61.532257"
       height="17.445099"
       id="rect1722" />
    <rect
       x="-473.40698"
       y="-253.13364"
       width="118.7565"
       height="35.959091"
       id="rect835" />
    <rect
       x="-473.40698"
       y="-253.13364"
       width="74.48246"
       height="19.928907"
       id="rect835-2" />
    <rect
       x="-473.40698"
       y="-253.13364"
       width="118.7565"
       height="35.959091"
       id="rect848" />
    <rect
       x="-473.40698"
       y="-253.13364"
       width="118.7565"
       height="35.959091"
       id="rect835-6" />
    <rect
       x="-473.40698"
       y="-253.13364"
       width="118.7565"
       height="35.959091"
       id="rect1532" />
    <rect
       x="-473.40698"
       y="-253.13364"
       width="74.48246"
       height="19.928907"
       id="rect835-2-3" />
    <rect
       x="-473.40698"
       y="-253.13364"
       width="74.48246"
       height="19.928907"
       id="rect1535" />
    <rect
       x="-473.40698"
       y="-253.13364"
       width="118.7565"
       height="35.959091"
       id="rect835-9" />
    <rect
       x="-473.40698"
       y="-253.13364"
       width="118.7565"
       height="35.959091"
       id="rect1674" />
    <rect
       x="-473.40698"
       y="-253.13364"
       width="118.7565"
       height="35.959091"
       id="rect835-4" />
    <rect
       x="-473.40698"
       y="-253.13364"
       width="118.7565"
       height="35.959091"
       id="rect1735" />
    <rect
       x="-473.40698"
       y="-253.13364"
       width="74.48246"
       height="19.928907"
       id="rect835-2-1" />
    <rect
       x="-473.40698"
       y="-253.13364"
       width="74.48246"
       height="19.928907"
       id="rect1738" />
    <rect
       x="-473.40698"
       y="-253.13364"
       width="118.7565"
       height="35.959091"
       id="rect835-4-9" />
    <rect
       x="-473.40698"
       y="-253.13364"
       width="118.7565"
       height="35.959091"
       id="rect1857" />
    <rect
       x="-473.40698"
       y="-253.13364"
       width="74.48246"
       height="19.928907"
       id="rect835-2-1-0" />
    <rect
       x="-473.40698"
       y="-253.13364"
       width="74.48246"
       height="19.928907"
       id="rect1860" />
    <rect
       x="-473.40698"
       y="-253.13364"
       width="118.7565"
       height="35.959091"
       id="rect835-4-9-1" />
    <rect
       x="-473.40698"
       y="-253.13364"
       width="118.7565"
       height="35.959091"
       id="rect2097" />
    <rect
       x="-473.40698"
       y="-253.13364"
       width="74.48246"
       height="19.928907"
       id="rect835-2-1-0-2" />
    <rect
       x="-473.40698"
       y="-253.13364"
       width="74.48246"
       height="19.928907"
       id="rect2100" />
    <rect
       x="-473.40698"
       y="-253.13364"
       width="118.7565"
       height="35.959091"
       id="rect835-4-9-1-4" />
    <rect
       x="-473.40698"
       y="-253.13364"
       width="118.7565"
       height="35.959091"
       id="rect2246" />
    <rect
       x="-473.40698"
       y="-253.13364"
       width="74.48246"
       height="19.928907"
       id="rect835-2-1-0-2-0" />
    <rect
       x="-473.40698"
       y="-253.13364"
       width="74.48246"
       height="19.928907"
       id="rect2249" />
    <rect
       x="-473.40698"
       y="-253.13364"
       width="118.7565"
       height="35.959091"
       id="rect835-4-9-1-4-9" />
    <rect
       x="-473.40698"
       y="-253.13364"
       width="118.7565"
       height="35.959091"
       id="rect2356" />
    <rect
       x="-473.40698"
       y="-253.13364"
       width="74.48246"
       height="19.928907"
       id="rect835-2-1-0-2-0-2" />
    <rect
       x="-473.40698"
       y="-253.13364"
       width="74.48246"
       height="19.928907"
       id="rect2359" />
  </defs>
  <sodipodi:namedview
     id="base"
     pagecolor="#ffffff"
     bordercolor="#666666"
     borderopacity="1.0"
     inkscape:pageopacity="1"
     inkscape:pageshadow="2"
     inkscape:zoom="8"
     inkscape:cx="165.2308"
     inkscape:cy="8.0978367"
     inkscape:document-units="mm"
     inkscape:current-layer="layer1"
     inkscape:document-rotation="0"
     showgrid="false"
     inkscape:window-width="3840"
     inkscape:window-height="2085"
     inkscape:window-x="0"
     inkscape:window-y="51"
     inkscape:window-maximized="1"
     fit-margin-top="10"
     fit-margin-left="10"
     fit-margin-bottom="10"
     fit-margin-right="10"
     units="px">
    <inkscape:grid
       type="xygrid"
       id="grid1369"
       originx="2.0114119"
       originy="-6.9561746" />
  </sodipodi:namedview>
  <metadata
     id="metadata5">
    <rdf:RDF>
      <cc:Work
         rdf:about="">
        <dc:format>image/svg+xml</dc:format>
        <dc:type
           rdf:resource="http://purl.org/dc/dcmitype/StillImage" />
        <dc:title></dc:title>
      </cc:Work>
    </rdf:RDF>
  </metadata>
  <g
     inkscape:label="Layer 1"
     inkscape:groupmode="layer"
     id="layer1"
     transform="translate(-54.874186,-85.981787)">
    <text
       xml:space="preserve"
       id="text1720"
       style="font-style:normal;font-weight:normal;font-size:10.5833px;line-height:1.25;font-family:sans-serif;letter-spacing:0px;word-spacing:0px;white-space:pre;shape-inside:url(#rect1722);fill:#000000;fill-opacity:1;stroke:none;" />
    <g
       aria-label="Image Compare"
       transform="translate(-9.2416625,3.8662905)"
       id="text865"
       style="font-style:normal;font-weight:normal;font-size:9.87778px;line-height:1.25;font-family:sans-serif;letter-spacing:0px;word-spacing:0px;white-space:pre;shape-inside:url(#rect867);fill:#000000;fill-opacity:1;stroke:none">
      <path
         d="m 84.356172,92.397723 h -0.740834 v -7.408335 h 0.740834 z"
         style="font-style:normal;font-variant:normal;font-weight:normal;font-stretch:normal;font-size:9.87778px;font-family:Mohave;-inkscape-font-specification:Mohave;shape-inside:url(#rect867)"
         id="path871" />
      <path
         d="m 85.926734,92.397723 v -5.358695 h 0.716139 v 0.7112 l -0.118534,-0.153106 q 0.182739,-0.325967 0.48895,-0.503767 0.31115,-0.1778 0.726017,-0.1778 0.503767,0 0.879123,0.256823 0.375355,0.256822 0.528461,0.75565 l -0.172861,-0.01976 q 0.153105,-0.459316 0.498828,-0.726017 0.350661,-0.2667 0.859366,-0.2667 0.434623,0 0.770467,0.192617 0.335845,0.192617 0.528461,0.563034 0.197556,0.365477 0.197556,0.884061 v 3.842456 H 91.112568 V 88.62935 q 0,-0.449439 -0.256822,-0.721078 -0.251884,-0.276578 -0.671689,-0.276578 -0.429684,0 -0.691445,0.276578 -0.256822,0.271639 -0.256822,0.721078 v 3.768373 H 88.519651 V 88.62935 q 0,-0.449439 -0.256822,-0.721078 -0.251884,-0.276578 -0.67169,-0.276578 -0.429683,0 -0.691444,0.276578 -0.256822,0.271639 -0.256822,0.721078 v 3.768373 z"
         style="font-style:normal;font-variant:normal;font-weight:normal;font-stretch:normal;font-size:9.87778px;font-family:Mohave;-inkscape-font-specification:Mohave;shape-inside:url(#rect867)"
         id="path873" />
      <path
         d="m 94.396926,92.516257 q -0.740834,0 -1.145823,-0.409928 -0.404989,-0.409928 -0.404989,-1.037167 0,-0.390172 0.143228,-0.646995 0.143228,-0.261761 0.365478,-0.424744 0.227189,-0.162984 0.479072,-0.261761 0.301272,-0.123473 0.612422,-0.192617 0.316089,-0.07408 0.582789,-0.153106 0.266701,-0.08396 0.429684,-0.227189 0.162983,-0.143227 0.162983,-0.404989 V 88.62935 q 0,-0.449439 -0.271639,-0.721078 -0.2667,-0.276578 -0.7112,-0.276578 -0.449439,0 -0.7112,0.276578 -0.256822,0.271639 -0.256822,0.721078 v 0.148167 H 92.95477 v -0.123472 q 0,-0.780345 0.464255,-1.259417 0.464256,-0.479073 1.219906,-0.479073 0.498828,0 0.879123,0.22225 0.385233,0.217312 0.602544,0.607484 0.217311,0.390172 0.217311,0.908756 v 3.743678 H 95.62177 V 91.65689 l 0.118534,0.158044 q -0.187678,0.335845 -0.528462,0.518584 -0.340783,0.182739 -0.814916,0.182739 z m 0.148166,-0.681567 q 0.503767,0 0.790223,-0.281517 0.286455,-0.286456 0.286455,-0.814917 v -0.948267 q -0.301272,0.187678 -0.671689,0.256823 -0.370417,0.06421 -0.706261,0.1778 -0.296333,0.09878 -0.48895,0.281516 -0.192617,0.1778 -0.192617,0.508706 0,0.360539 0.256822,0.592667 0.256823,0.227189 0.726017,0.227189 z"
         style="font-style:normal;font-variant:normal;font-weight:normal;font-stretch:normal;font-size:9.87778px;font-family:Mohave;-inkscape-font-specification:Mohave;shape-inside:url(#rect867)"
         id="path875" />
      <path
         d="m 99.098732,94.205357 q -0.750711,0 -1.219906,-0.484011 -0.464255,-0.479073 -0.464255,-1.264356 v -0.128411 h 0.716139 v 0.153105 q 0,0.449439 0.256822,0.726017 0.261761,0.281517 0.7112,0.281517 0.449439,0 0.716139,-0.281517 0.266699,-0.276578 0.266699,-0.726017 v -1.471789 l 0.12347,0.158045 q -0.18274,0.31115 -0.488947,0.484011 -0.301272,0.172861 -0.721078,0.172861 -0.439561,0 -0.795161,-0.192617 -0.3556,-0.197555 -0.563033,-0.582789 -0.207434,-0.385233 -0.207434,-0.943328 V 88.62935 q 0,-0.553155 0.207434,-0.93345 0.207433,-0.385233 0.563033,-0.582789 0.3556,-0.197556 0.795161,-0.197556 0.419806,0 0.721078,0.1778 0.306207,0.172862 0.488947,0.479073 l -0.12347,0.162983 v -0.696383 h 0.71614 v 5.422901 q 0,0.523522 -0.21731,0.913695 -0.21731,0.395111 -0.597607,0.612422 -0.380294,0.217311 -0.884061,0.217311 z m 0.02469,-3.096684 q 0.454378,0 0.706262,-0.271639 0.251882,-0.276578 0.251882,-0.726017 V 88.62935 q 0,-0.449439 -0.251882,-0.721078 -0.251884,-0.276578 -0.706262,-0.276578 -0.459316,0 -0.721077,0.276578 -0.256823,0.271639 -0.256823,0.721078 v 1.476728 q 0,0.449439 0.256823,0.726017 0.261761,0.276578 0.721077,0.276578 z"
         style="font-style:normal;font-variant:normal;font-weight:normal;font-stretch:normal;font-size:9.87778px;font-family:Mohave;-inkscape-font-specification:Mohave;shape-inside:url(#rect867)"
         id="path877" />
      <path
         d="m 103.74128,92.516257 q -0.50377,0 -0.88406,-0.217312 -0.38029,-0.217311 -0.59761,-0.607483 -0.21731,-0.395111 -0.21731,-0.918634 v -2.118783 q 0,-0.513645 0.21731,-0.903817 0.21732,-0.395111 0.59761,-0.612423 0.38029,-0.22225 0.88406,-0.22225 0.75565,0 1.21991,0.479073 0.46425,0.479072 0.46425,1.259417 v 1.170517 h -2.81023 v -0.691445 h 2.09409 V 88.62935 q 0,-0.449439 -0.26176,-0.721078 -0.25682,-0.276578 -0.70626,-0.276578 -0.44944,0 -0.71614,0.276578 -0.2667,0.271639 -0.2667,0.721078 v 2.168173 q 0,0.449439 0.2667,0.726017 0.2667,0.276578 0.71614,0.276578 0.44944,0 0.70626,-0.276578 0.26176,-0.276578 0.26176,-0.726017 v -0.123472 h 0.71614 v 0.09878 q 0,0.780345 -0.46425,1.264356 -0.46426,0.479073 -1.21991,0.479073 z"
         style="font-style:normal;font-variant:normal;font-weight:normal;font-stretch:normal;font-size:9.87778px;font-family:Mohave;-inkscape-font-specification:Mohave;shape-inside:url(#rect867)"
         id="path879" />
      <path
         d="m 112.31518,90.481434 v 0.246944 q 0,0.819856 -0.47908,1.323623 -0.47907,0.503767 -1.27423,0.503767 -0.79022,0 -1.27423,-0.503767 -0.47908,-0.503767 -0.47908,-1.323623 v -4.069645 q 0,-0.824794 0.47908,-1.323622 0.48401,-0.503767 1.27423,-0.503767 0.79516,0 1.27423,0.503767 0.47908,0.498828 0.47908,1.323622 v 0.246945 h -0.74084 v -0.246945 q 0,-0.48895 -0.27657,-0.785283 -0.27658,-0.301273 -0.7359,-0.301273 -0.45932,0 -0.73589,0.301273 -0.27658,0.296333 -0.27658,0.785283 v 4.069645 q 0,0.488951 0.27658,0.790223 0.27657,0.296333 0.73589,0.296333 0.45932,0 0.7359,-0.296333 0.27657,-0.301272 0.27657,-0.790223 v -0.246944 z"
         style="font-style:normal;font-variant:normal;font-weight:normal;font-stretch:normal;font-size:9.87778px;font-family:Mohave;-inkscape-font-specification:Mohave;shape-inside:url(#rect867)"
         id="path881" />
      <path
         d="m 115.0118,92.516257 q -0.50377,0 -0.88406,-0.217312 -0.3803,-0.217311 -0.59761,-0.607483 -0.21731,-0.395111 -0.21731,-0.918634 v -2.118783 q 0,-0.513645 0.21731,-0.903817 0.21731,-0.395111 0.59761,-0.612423 0.38029,-0.22225 0.88406,-0.22225 0.75565,0 1.2199,0.479073 0.46426,0.479072 0.46426,1.259417 v 2.118783 q 0,0.780345 -0.46426,1.264356 -0.46425,0.479073 -1.2199,0.479073 z m 0,-0.716139 q 0.44944,0 0.70626,-0.276578 0.26176,-0.276578 0.26176,-0.726017 V 88.62935 q 0,-0.449439 -0.26176,-0.721078 -0.25682,-0.276578 -0.70626,-0.276578 -0.44944,0 -0.71614,0.276578 -0.2667,0.271639 -0.2667,0.721078 v 2.168173 q 0,0.449439 0.2667,0.726017 0.2667,0.276578 0.71614,0.276578 z"
         style="font-style:normal;font-variant:normal;font-weight:normal;font-stretch:normal;font-size:9.87778px;font-family:Mohave;-inkscape-font-specification:Mohave;shape-inside:url(#rect867)"
         id="path883" />
      <path
         d="m 117.95043,92.397723 v -5.358695 h 0.71613 v 0.7112 l -0.11853,-0.153106 q 0.18274,-0.325967 0.48895,-0.503767 0.31115,-0.1778 0.72602,-0.1778 0.50377,0 0.87912,0.256823 0.37536,0.256822 0.52846,0.75565 l -0.17286,-0.01976 q 0.15311,-0.459316 0.49883,-0.726017 0.35066,-0.2667 0.85937,-0.2667 0.43462,0 0.77046,0.192617 0.33585,0.192617 0.52846,0.563034 0.19756,0.365477 0.19756,0.884061 v 3.842456 h -0.71614 V 88.62935 q 0,-0.449439 -0.25682,-0.721078 -0.25189,-0.276578 -0.67169,-0.276578 -0.42968,0 -0.69145,0.276578 -0.25682,0.271639 -0.25682,0.721078 v 3.768373 h -0.71614 V 88.62935 q 0,-0.449439 -0.25682,-0.721078 -0.25188,-0.276578 -0.67169,-0.276578 -0.42968,0 -0.69144,0.276578 -0.25683,0.271639 -0.25683,0.721078 v 3.768373 z"
         style="font-style:normal;font-variant:normal;font-weight:normal;font-stretch:normal;font-size:9.87778px;font-family:Mohave;-inkscape-font-specification:Mohave;shape-inside:url(#rect867)"
         id="path885" />
      <path
         d="m 125.19577,94.175724 v -7.136696 h 0.71614 v 0.696383 l -0.11853,-0.162983 q 0.1778,-0.306211 0.47907,-0.479073 0.30621,-0.1778 0.73096,-0.1778 0.43956,0 0.79022,0.197556 0.3556,0.197556 0.56303,0.582789 0.20743,0.380295 0.20743,0.93345 v 2.168173 q 0,0.558094 -0.20743,0.943328 -0.20743,0.385233 -0.56303,0.582789 -0.35066,0.192617 -0.79022,0.192617 -0.42475,0 -0.73096,-0.172862 -0.30127,-0.172861 -0.47907,-0.484011 l 0.11853,-0.158044 v 2.474384 z m 1.67429,-2.375606 q 0.45931,0 0.71613,-0.276578 0.26177,-0.276578 0.26177,-0.726017 V 88.62935 q 0,-0.449439 -0.26177,-0.721078 -0.25682,-0.276578 -0.7112,-0.276578 -0.45931,0 -0.7112,0.276578 -0.25188,0.271639 -0.25188,0.721078 v 2.173112 q 0,0.449439 0.25188,0.726017 0.25189,0.271639 0.70627,0.271639 z"
         style="font-style:normal;font-variant:normal;font-weight:normal;font-stretch:normal;font-size:9.87778px;font-family:Mohave;-inkscape-font-specification:Mohave;shape-inside:url(#rect867)"
         id="path887" />
      <path
         d="m 131.04834,92.516257 q -0.74083,0 -1.14582,-0.409928 -0.40499,-0.409928 -0.40499,-1.037167 0,-0.390172 0.14323,-0.646995 0.14322,-0.261761 0.36547,-0.424744 0.22719,-0.162984 0.47908,-0.261761 0.30127,-0.123473 0.61242,-0.192617 0.31609,-0.07408 0.58279,-0.153106 0.2667,-0.08396 0.42968,-0.227189 0.16299,-0.143227 0.16299,-0.404989 V 88.62935 q 0,-0.449439 -0.27164,-0.721078 -0.2667,-0.276578 -0.7112,-0.276578 -0.44944,0 -0.7112,0.276578 -0.25683,0.271639 -0.25683,0.721078 v 0.148167 h -0.71614 v -0.123472 q 0,-0.780345 0.46426,-1.259417 0.46426,-0.479073 1.21991,-0.479073 0.49882,0 0.87912,0.22225 0.38523,0.217312 0.60254,0.607484 0.21731,0.390172 0.21731,0.908756 v 3.743678 h -0.71613 V 91.65689 l 0.11853,0.158044 q -0.18768,0.335845 -0.52846,0.518584 -0.34079,0.182739 -0.81492,0.182739 z m 0.14817,-0.681567 q 0.50376,0 0.79022,-0.281517 0.28646,-0.286456 0.28646,-0.814917 v -0.948267 q -0.30128,0.187678 -0.67169,0.256823 -0.37042,0.06421 -0.70627,0.1778 -0.29633,0.09878 -0.48895,0.281516 -0.19261,0.1778 -0.19261,0.508706 0,0.360539 0.25682,0.592667 0.25682,0.227189 0.72602,0.227189 z"
         style="font-style:normal;font-variant:normal;font-weight:normal;font-stretch:normal;font-size:9.87778px;font-family:Mohave;-inkscape-font-specification:Mohave;shape-inside:url(#rect867)"
         id="path889" />
      <path
         d="m 134.31293,92.397723 v -5.358695 h 0.71614 v 0.770466 l -0.12347,-0.148166 q 0.18767,-0.330906 0.49882,-0.508706 0.31115,-0.1778 0.72108,-0.1778 h 0.23213 v 0.716139 h -0.3803 q -0.42968,0 -0.69144,0.2667 -0.25682,0.2667 -0.25682,0.716139 v 3.723923 z"
         style="font-style:normal;font-variant:normal;font-weight:normal;font-stretch:normal;font-size:9.87778px;font-family:Mohave;-inkscape-font-specification:Mohave;shape-inside:url(#rect867)"
         id="path891" />
      <path
         d="m 138.64433,92.516257 q -0.50377,0 -0.88406,-0.217312 -0.3803,-0.217311 -0.59761,-0.607483 -0.21731,-0.395111 -0.21731,-0.918634 v -2.118783 q 0,-0.513645 0.21731,-0.903817 0.21731,-0.395111 0.59761,-0.612423 0.38029,-0.22225 0.88406,-0.22225 0.75565,0 1.2199,0.479073 0.46426,0.479072 0.46426,1.259417 v 1.170517 h -2.81023 v -0.691445 h 2.09409 V 88.62935 q 0,-0.449439 -0.26176,-0.721078 -0.25682,-0.276578 -0.70626,-0.276578 -0.44944,0 -0.71614,0.276578 -0.2667,0.271639 -0.2667,0.721078 v 2.168173 q 0,0.449439 0.2667,0.726017 0.2667,0.276578 0.71614,0.276578 0.44944,0 0.70626,-0.276578 0.26176,-0.276578 0.26176,-0.726017 v -0.123472 h 0.71614 v 0.09878 q 0,0.780345 -0.46426,1.264356 -0.46425,0.479073 -1.2199,0.479073 z"
         style="font-style:normal;font-variant:normal;font-weight:normal;font-stretch:normal;font-size:9.87778px;font-family:Mohave;-inkscape-font-specification:Mohave;shape-inside:url(#rect867)"
         id="path893" />
    </g>
    <path
       d="m 65.48109,94.042921 -1.656112,-4.873548 c -0.13012,-0.382947 -0.549907,-0.589759 -0.932828,-0.459636 l -4.873568,1.65612 c -0.382925,0.130119 -0.589757,0.549867 -0.459623,0.932814 l 1.656111,4.873548 c 0.130119,0.382904 0.549878,0.589759 0.932802,0.459636 l 4.873568,-1.65612 c 0.382923,-0.13012 0.589768,-0.54991 0.45965,-0.932814 z m -5.00201,-0.43594 1.226333,0.752088 0.684894,-1.984015 2.276255,1.556356 -4.873568,1.65612 z"
       id="path1139-2-5-6-8-7-0"
       style="fill:#56b4e9;fill-opacity:1;stroke-width:0.367661" />
    <g
       id="g937"
       transform="matrix(0.76323144,0.22435636,-0.22435636,0.76323144,70.586132,0.77442398)">
      <path
         d="m 34.434098,114.76264 v -6.58517 c 0,-0.51742 -0.423334,-0.94073 -0.940742,-0.94073 h -6.585184 c -0.517408,0 -0.940741,0.42332 -0.940741,0.94073 v 6.58517 c 0,0.51742 0.423333,0.94075 0.940741,0.94075 h 6.585184 c 0.517408,0 0.940742,-0.42334 0.940742,-0.94075 z m -5.879631,-2.58702 1.175928,1.41582 1.646295,-2.12138 2.116666,2.82224 h -6.585184 z"
         id="path1139-2-5-6-0-0"
         style="fill:#d55e00;fill-opacity:1;stroke-width:0.47037" />
    </g>
  </g>
</svg>
