<svg width="127" height="58" viewBox="0 0 127 58" fill="none" xmlns="http://www.w3.org/2000/svg">
<path d="M6.14062 52.2871H7.26562C7.20703 52.8262 7.05273 53.3086 6.80273 53.7344C6.55273 54.1602 6.19922 54.498 5.74219 54.748C5.28516 54.9941 4.71484 55.1172 4.03125 55.1172C3.53125 55.1172 3.07617 55.0234 2.66602 54.8359C2.25977 54.6484 1.91016 54.3828 1.61719 54.0391C1.32422 53.6914 1.09766 53.2754 0.9375 52.791C0.78125 52.3027 0.703125 51.7598 0.703125 51.1621V50.3125C0.703125 49.7148 0.78125 49.1738 0.9375 48.6895C1.09766 48.2012 1.32617 47.7832 1.62305 47.4355C1.92383 47.0879 2.28516 46.8203 2.70703 46.6328C3.12891 46.4453 3.60352 46.3516 4.13086 46.3516C4.77539 46.3516 5.32031 46.4727 5.76562 46.7148C6.21094 46.957 6.55664 47.293 6.80273 47.7227C7.05273 48.1484 7.20703 48.6426 7.26562 49.2051H6.14062C6.08594 48.8066 5.98438 48.4648 5.83594 48.1797C5.6875 47.8906 5.47656 47.668 5.20312 47.5117C4.92969 47.3555 4.57227 47.2773 4.13086 47.2773C3.75195 47.2773 3.41797 47.3496 3.12891 47.4941C2.84375 47.6387 2.60352 47.8438 2.4082 48.1094C2.2168 48.375 2.07227 48.6934 1.97461 49.0645C1.87695 49.4355 1.82812 49.8477 1.82812 50.3008V51.1621C1.82812 51.5801 1.87109 51.9727 1.95703 52.3398C2.04688 52.707 2.18164 53.0293 2.36133 53.3066C2.54102 53.584 2.76953 53.8027 3.04688 53.9629C3.32422 54.1191 3.65234 54.1973 4.03125 54.1973C4.51172 54.1973 4.89453 54.1211 5.17969 53.9688C5.46484 53.8164 5.67969 53.5977 5.82422 53.3125C5.97266 53.0273 6.07812 52.6855 6.14062 52.2871ZM9.82031 46V55H8.73047V46H9.82031ZM12.7383 48.6602V55H11.6484V48.6602H12.7383ZM11.5664 46.9785C11.5664 46.8027 11.6191 46.6543 11.7246 46.5332C11.834 46.4121 11.9941 46.3516 12.2051 46.3516C12.4121 46.3516 12.5703 46.4121 12.6797 46.5332C12.793 46.6543 12.8496 46.8027 12.8496 46.9785C12.8496 47.1465 12.793 47.291 12.6797 47.4121C12.5703 47.5293 12.4121 47.5879 12.2051 47.5879C11.9941 47.5879 11.834 47.5293 11.7246 47.4121C11.6191 47.291 11.5664 47.1465 11.5664 46.9785ZM17.0156 54.2266C17.2734 54.2266 17.5117 54.1738 17.7305 54.0684C17.9492 53.9629 18.1289 53.8184 18.2695 53.6348C18.4102 53.4473 18.4902 53.2344 18.5098 52.9961H19.541C19.5215 53.3711 19.3945 53.7207 19.1602 54.0449C18.9297 54.3652 18.627 54.625 18.252 54.8242C17.877 55.0195 17.4648 55.1172 17.0156 55.1172C16.5391 55.1172 16.123 55.0332 15.7676 54.8652C15.416 54.6973 15.123 54.4668 14.8887 54.1738C14.6582 53.8809 14.4844 53.5449 14.3672 53.166C14.2539 52.7832 14.1973 52.3789 14.1973 51.9531V51.707C14.1973 51.2812 14.2539 50.8789 14.3672 50.5C14.4844 50.1172 14.6582 49.7793 14.8887 49.4863C15.123 49.1934 15.416 48.9629 15.7676 48.7949C16.123 48.627 16.5391 48.543 17.0156 48.543C17.5117 48.543 17.9453 48.6445 18.3164 48.8477C18.6875 49.0469 18.9785 49.3203 19.1895 49.668C19.4043 50.0117 19.5215 50.4023 19.541 50.8398H18.5098C18.4902 50.5781 18.416 50.3418 18.2871 50.1309C18.1621 49.9199 17.9902 49.752 17.7715 49.627C17.5566 49.498 17.3047 49.4336 17.0156 49.4336C16.6836 49.4336 16.4043 49.5 16.1777 49.6328C15.9551 49.7617 15.7773 49.9375 15.6445 50.1602C15.5156 50.3789 15.4219 50.623 15.3633 50.8926C15.3086 51.1582 15.2812 51.4297 15.2812 51.707V51.9531C15.2812 52.2305 15.3086 52.5039 15.3633 52.7734C15.418 53.043 15.5098 53.2871 15.6387 53.5059C15.7715 53.7246 15.9492 53.9004 16.1719 54.0332C16.3984 54.1621 16.6797 54.2266 17.0156 54.2266ZM21.8496 46V55H20.7598V46H21.8496ZM25.7227 48.6602L22.957 51.6191L21.4102 53.2246L21.3223 52.0703L22.4297 50.7461L24.3984 48.6602H25.7227ZM24.7324 55L22.4707 51.9766L23.0332 51.0098L26.0098 55H24.7324ZM32.4727 48.6602V49.4922H29.0449V48.6602H32.4727ZM30.2051 47.1191H31.2891V53.4297C31.2891 53.6445 31.3223 53.8066 31.3887 53.916C31.4551 54.0254 31.541 54.0977 31.6465 54.1328C31.752 54.168 31.8652 54.1855 31.9863 54.1855C32.0762 54.1855 32.1699 54.1777 32.2676 54.1621C32.3691 54.1426 32.4453 54.127 32.4961 54.1152L32.502 55C32.416 55.0273 32.3027 55.0527 32.1621 55.0762C32.0254 55.1035 31.8594 55.1172 31.6641 55.1172C31.3984 55.1172 31.1543 55.0645 30.9316 54.959C30.709 54.8535 30.5312 54.6777 30.3984 54.4316C30.2695 54.1816 30.2051 53.8457 30.2051 53.4238V47.1191ZM33.3398 51.9004V51.7656C33.3398 51.3086 33.4062 50.8848 33.5391 50.4941C33.6719 50.0996 33.8633 49.7578 34.1133 49.4688C34.3633 49.1758 34.666 48.9492 35.0215 48.7891C35.377 48.625 35.7754 48.543 36.2168 48.543C36.6621 48.543 37.0625 48.625 37.418 48.7891C37.7773 48.9492 38.082 49.1758 38.332 49.4688C38.5859 49.7578 38.7793 50.0996 38.9121 50.4941C39.0449 50.8848 39.1113 51.3086 39.1113 51.7656V51.9004C39.1113 52.3574 39.0449 52.7812 38.9121 53.1719C38.7793 53.5625 38.5859 53.9043 38.332 54.1973C38.082 54.4863 37.7793 54.7129 37.4238 54.877C37.0723 55.0371 36.6738 55.1172 36.2285 55.1172C35.7832 55.1172 35.3828 55.0371 35.0273 54.877C34.6719 54.7129 34.3672 54.4863 34.1133 54.1973C33.8633 53.9043 33.6719 53.5625 33.5391 53.1719C33.4062 52.7812 33.3398 52.3574 33.3398 51.9004ZM34.4238 51.7656V51.9004C34.4238 52.2168 34.4609 52.5156 34.5352 52.7969C34.6094 53.0742 34.7207 53.3203 34.8691 53.5352C35.0215 53.75 35.2109 53.9199 35.4375 54.0449C35.6641 54.166 35.9277 54.2266 36.2285 54.2266C36.5254 54.2266 36.7852 54.166 37.0078 54.0449C37.2344 53.9199 37.4219 53.75 37.5703 53.5352C37.7188 53.3203 37.8301 53.0742 37.9043 52.7969C37.9824 52.5156 38.0215 52.2168 38.0215 51.9004V51.7656C38.0215 51.4531 37.9824 51.1582 37.9043 50.8809C37.8301 50.5996 37.7168 50.3516 37.5645 50.1367C37.416 49.918 37.2285 49.7461 37.002 49.6211C36.7793 49.4961 36.5176 49.4336 36.2168 49.4336C35.9199 49.4336 35.6582 49.4961 35.4316 49.6211C35.209 49.7461 35.0215 49.918 34.8691 50.1367C34.7207 50.3516 34.6094 50.5996 34.5352 50.8809C34.4609 51.1582 34.4238 51.4531 34.4238 51.7656ZM47.1387 53.3184C47.1387 53.1621 47.1035 53.0176 47.0332 52.8848C46.9668 52.748 46.8281 52.625 46.6172 52.5156C46.4102 52.4023 46.0977 52.3047 45.6797 52.2227C45.3281 52.1484 45.0098 52.0605 44.7246 51.959C44.4434 51.8574 44.2031 51.7344 44.0039 51.5898C43.8086 51.4453 43.6582 51.2754 43.5527 51.0801C43.4473 50.8848 43.3945 50.6562 43.3945 50.3945C43.3945 50.1445 43.4492 49.9082 43.5586 49.6855C43.6719 49.4629 43.8301 49.2656 44.0332 49.0938C44.2402 48.9219 44.4883 48.7871 44.7773 48.6895C45.0664 48.5918 45.3887 48.543 45.7441 48.543C46.252 48.543 46.6855 48.6328 47.0449 48.8125C47.4043 48.9922 47.6797 49.2324 47.8711 49.5332C48.0625 49.8301 48.1582 50.1602 48.1582 50.5234H47.0742C47.0742 50.3477 47.0215 50.1777 46.916 50.0137C46.8145 49.8457 46.6641 49.707 46.4648 49.5977C46.2695 49.4883 46.0293 49.4336 45.7441 49.4336C45.4434 49.4336 45.1992 49.4805 45.0117 49.5742C44.8281 49.6641 44.6934 49.7793 44.6074 49.9199C44.5254 50.0605 44.4844 50.209 44.4844 50.3652C44.4844 50.4824 44.5039 50.5879 44.543 50.6816C44.5859 50.7715 44.6602 50.8555 44.7656 50.9336C44.8711 51.0078 45.0195 51.0781 45.2109 51.1445C45.4023 51.2109 45.6465 51.2773 45.9434 51.3438C46.4629 51.4609 46.8906 51.6016 47.2266 51.7656C47.5625 51.9297 47.8125 52.1309 47.9766 52.3691C48.1406 52.6074 48.2227 52.8965 48.2227 53.2363C48.2227 53.5137 48.1641 53.7676 48.0469 53.998C47.9336 54.2285 47.7676 54.4277 47.5488 54.5957C47.334 54.7598 47.0762 54.8887 46.7754 54.9824C46.4785 55.0723 46.1445 55.1172 45.7734 55.1172C45.2148 55.1172 44.7422 55.0176 44.3555 54.8184C43.9688 54.6191 43.6758 54.3613 43.4766 54.0449C43.2773 53.7285 43.1777 53.3945 43.1777 53.043H44.2676C44.2832 53.3398 44.3691 53.5762 44.5254 53.752C44.6816 53.9238 44.873 54.0469 45.0996 54.1211C45.3262 54.1914 45.5508 54.2266 45.7734 54.2266C46.0703 54.2266 46.3184 54.1875 46.5176 54.1094C46.7207 54.0312 46.875 53.9238 46.9805 53.7871C47.0859 53.6504 47.1387 53.4941 47.1387 53.3184ZM52.2773 55.1172C51.8359 55.1172 51.4355 55.043 51.0762 54.8945C50.7207 54.7422 50.4141 54.5293 50.1562 54.2559C49.9023 53.9824 49.707 53.6582 49.5703 53.2832C49.4336 52.9082 49.3652 52.498 49.3652 52.0527V51.8066C49.3652 51.291 49.4414 50.832 49.5938 50.4297C49.7461 50.0234 49.9531 49.6797 50.2148 49.3984C50.4766 49.1172 50.7734 48.9043 51.1055 48.7598C51.4375 48.6152 51.7812 48.543 52.1367 48.543C52.5898 48.543 52.9805 48.6211 53.3086 48.7773C53.6406 48.9336 53.9121 49.1523 54.123 49.4336C54.334 49.7109 54.4902 50.0391 54.5918 50.418C54.6934 50.793 54.7441 51.2031 54.7441 51.6484V52.1348H50.0098V51.25H53.6602V51.168C53.6445 50.8867 53.5859 50.6133 53.4844 50.3477C53.3867 50.082 53.2305 49.8633 53.0156 49.6914C52.8008 49.5195 52.5078 49.4336 52.1367 49.4336C51.8906 49.4336 51.6641 49.4863 51.457 49.5918C51.25 49.6934 51.0723 49.8457 50.9238 50.0488C50.7754 50.252 50.6602 50.5 50.5781 50.793C50.4961 51.0859 50.4551 51.4238 50.4551 51.8066V52.0527C50.4551 52.3535 50.4961 52.6367 50.5781 52.9023C50.6641 53.1641 50.7871 53.3945 50.9473 53.5938C51.1113 53.793 51.3086 53.9492 51.5391 54.0625C51.7734 54.1758 52.0391 54.2324 52.3359 54.2324C52.7188 54.2324 53.043 54.1543 53.3086 53.998C53.5742 53.8418 53.8066 53.6328 54.0059 53.3711L54.6621 53.8926C54.5254 54.0996 54.3516 54.2969 54.1406 54.4844C53.9297 54.6719 53.6699 54.8242 53.3613 54.9414C53.0566 55.0586 52.6953 55.1172 52.2773 55.1172ZM57.1875 46V55H56.0977V46H57.1875ZM61.5586 55.1172C61.1172 55.1172 60.7168 55.043 60.3574 54.8945C60.002 54.7422 59.6953 54.5293 59.4375 54.2559C59.1836 53.9824 58.9883 53.6582 58.8516 53.2832C58.7148 52.9082 58.6465 52.498 58.6465 52.0527V51.8066C58.6465 51.291 58.7227 50.832 58.875 50.4297C59.0273 50.0234 59.2344 49.6797 59.4961 49.3984C59.7578 49.1172 60.0547 48.9043 60.3867 48.7598C60.7188 48.6152 61.0625 48.543 61.418 48.543C61.8711 48.543 62.2617 48.6211 62.5898 48.7773C62.9219 48.9336 63.1934 49.1523 63.4043 49.4336C63.6152 49.7109 63.7715 50.0391 63.873 50.418C63.9746 50.793 64.0254 51.2031 64.0254 51.6484V52.1348H59.291V51.25H62.9414V51.168C62.9258 50.8867 62.8672 50.6133 62.7656 50.3477C62.668 50.082 62.5117 49.8633 62.2969 49.6914C62.082 49.5195 61.7891 49.4336 61.418 49.4336C61.1719 49.4336 60.9453 49.4863 60.7383 49.5918C60.5312 49.6934 60.3535 49.8457 60.2051 50.0488C60.0566 50.252 59.9414 50.5 59.8594 50.793C59.7773 51.0859 59.7363 51.4238 59.7363 51.8066V52.0527C59.7363 52.3535 59.7773 52.6367 59.8594 52.9023C59.9453 53.1641 60.0684 53.3945 60.2285 53.5938C60.3926 53.793 60.5898 53.9492 60.8203 54.0625C61.0547 54.1758 61.3203 54.2324 61.6172 54.2324C62 54.2324 62.3242 54.1543 62.5898 53.998C62.8555 53.8418 63.0879 53.6328 63.2871 53.3711L63.9434 53.8926C63.8066 54.0996 63.6328 54.2969 63.4219 54.4844C63.2109 54.6719 62.9512 54.8242 62.6426 54.9414C62.3379 55.0586 61.9766 55.1172 61.5586 55.1172ZM67.8281 54.2266C68.0859 54.2266 68.3242 54.1738 68.543 54.0684C68.7617 53.9629 68.9414 53.8184 69.082 53.6348C69.2227 53.4473 69.3027 53.2344 69.3223 52.9961H70.3535C70.334 53.3711 70.207 53.7207 69.9727 54.0449C69.7422 54.3652 69.4395 54.625 69.0645 54.8242C68.6895 55.0195 68.2773 55.1172 67.8281 55.1172C67.3516 55.1172 66.9355 55.0332 66.5801 54.8652C66.2285 54.6973 65.9355 54.4668 65.7012 54.1738C65.4707 53.8809 65.2969 53.5449 65.1797 53.166C65.0664 52.7832 65.0098 52.3789 65.0098 51.9531V51.707C65.0098 51.2812 65.0664 50.8789 65.1797 50.5C65.2969 50.1172 65.4707 49.7793 65.7012 49.4863C65.9355 49.1934 66.2285 48.9629 66.5801 48.7949C66.9355 48.627 67.3516 48.543 67.8281 48.543C68.3242 48.543 68.7578 48.6445 69.1289 48.8477C69.5 49.0469 69.791 49.3203 70.002 49.668C70.2168 50.0117 70.334 50.4023 70.3535 50.8398H69.3223C69.3027 50.5781 69.2285 50.3418 69.0996 50.1309C68.9746 49.9199 68.8027 49.752 68.584 49.627C68.3691 49.498 68.1172 49.4336 67.8281 49.4336C67.4961 49.4336 67.2168 49.5 66.9902 49.6328C66.7676 49.7617 66.5898 49.9375 66.457 50.1602C66.3281 50.3789 66.2344 50.623 66.1758 50.8926C66.1211 51.1582 66.0938 51.4297 66.0938 51.707V51.9531C66.0938 52.2305 66.1211 52.5039 66.1758 52.7734C66.2305 53.043 66.3223 53.2871 66.4512 53.5059C66.584 53.7246 66.7617 53.9004 66.9844 54.0332C67.2109 54.1621 67.4922 54.2266 67.8281 54.2266ZM74.2266 48.6602V49.4922H70.7988V48.6602H74.2266ZM71.959 47.1191H73.043V53.4297C73.043 53.6445 73.0762 53.8066 73.1426 53.916C73.209 54.0254 73.2949 54.0977 73.4004 54.1328C73.5059 54.168 73.6191 54.1855 73.7402 54.1855C73.8301 54.1855 73.9238 54.1777 74.0215 54.1621C74.123 54.1426 74.1992 54.127 74.25 54.1152L74.2559 55C74.1699 55.0273 74.0566 55.0527 73.916 55.0762C73.7793 55.1035 73.6133 55.1172 73.418 55.1172C73.1523 55.1172 72.9082 55.0645 72.6855 54.959C72.4629 54.8535 72.2852 54.6777 72.1523 54.4316C72.0234 54.1816 71.959 53.8457 71.959 53.4238V47.1191ZM82.2129 53.916V50.6523C82.2129 50.4023 82.1621 50.1855 82.0605 50.002C81.9629 49.8145 81.8145 49.6699 81.6152 49.5684C81.416 49.4668 81.1699 49.416 80.877 49.416C80.6035 49.416 80.3633 49.4629 80.1562 49.5566C79.9531 49.6504 79.793 49.7734 79.6758 49.9258C79.5625 50.0781 79.5059 50.2422 79.5059 50.418H78.4219C78.4219 50.1914 78.4805 49.9668 78.5977 49.7441C78.7148 49.5215 78.8828 49.3203 79.1016 49.1406C79.3242 48.957 79.5898 48.8125 79.8984 48.707C80.2109 48.5977 80.5586 48.543 80.9414 48.543C81.4023 48.543 81.8086 48.6211 82.1602 48.7773C82.5156 48.9336 82.793 49.1699 82.9922 49.4863C83.1953 49.7988 83.2969 50.1914 83.2969 50.6641V53.6172C83.2969 53.8281 83.3145 54.0527 83.3496 54.291C83.3887 54.5293 83.4453 54.7344 83.5195 54.9062V55H82.3887C82.334 54.875 82.291 54.709 82.2598 54.502C82.2285 54.291 82.2129 54.0957 82.2129 53.916ZM82.4004 51.1562L82.4121 51.918H81.3164C81.0078 51.918 80.7324 51.9434 80.4902 51.9941C80.248 52.041 80.0449 52.1133 79.8809 52.2109C79.7168 52.3086 79.5918 52.4316 79.5059 52.5801C79.4199 52.7246 79.377 52.8945 79.377 53.0898C79.377 53.2891 79.4219 53.4707 79.5117 53.6348C79.6016 53.7988 79.7363 53.9297 79.916 54.0273C80.0996 54.1211 80.3242 54.168 80.5898 54.168C80.9219 54.168 81.2148 54.0977 81.4688 53.957C81.7227 53.8164 81.9238 53.6445 82.0723 53.4414C82.2246 53.2383 82.3066 53.041 82.3184 52.8496L82.7812 53.3711C82.7539 53.5352 82.6797 53.7168 82.5586 53.916C82.4375 54.1152 82.2754 54.3066 82.0723 54.4902C81.873 54.6699 81.6348 54.8203 81.3574 54.9414C81.084 55.0586 80.7754 55.1172 80.4316 55.1172C80.002 55.1172 79.625 55.0332 79.3008 54.8652C78.9805 54.6973 78.7305 54.4727 78.5508 54.1914C78.375 53.9062 78.2871 53.5879 78.2871 53.2363C78.2871 52.8965 78.3535 52.5977 78.4863 52.3398C78.6191 52.0781 78.8105 51.8613 79.0605 51.6895C79.3105 51.5137 79.6113 51.3809 79.9629 51.291C80.3145 51.2012 80.707 51.1562 81.1406 51.1562H82.4004ZM86.0859 50.0137V55H85.002V48.6602H86.0273L86.0859 50.0137ZM85.8281 51.5898L85.377 51.5723C85.3809 51.1387 85.4453 50.7383 85.5703 50.3711C85.6953 50 85.8711 49.6777 86.0977 49.4043C86.3242 49.1309 86.5938 48.9199 86.9062 48.7715C87.2227 48.6191 87.5723 48.543 87.9551 48.543C88.2676 48.543 88.5488 48.5859 88.7988 48.6719C89.0488 48.7539 89.2617 48.8867 89.4375 49.0703C89.6172 49.2539 89.7539 49.4922 89.8477 49.7852C89.9414 50.0742 89.9883 50.4277 89.9883 50.8457V55H88.8984V50.834C88.8984 50.502 88.8496 50.2363 88.752 50.0371C88.6543 49.834 88.5117 49.6875 88.3242 49.5977C88.1367 49.5039 87.9062 49.457 87.6328 49.457C87.3633 49.457 87.1172 49.5137 86.8945 49.627C86.6758 49.7402 86.4863 49.8965 86.3262 50.0957C86.1699 50.2949 86.0469 50.5234 85.957 50.7812C85.8711 51.0352 85.8281 51.3047 85.8281 51.5898ZM95.7891 48.6602V55H94.6992V48.6602H95.7891ZM94.6172 46.9785C94.6172 46.8027 94.6699 46.6543 94.7754 46.5332C94.8848 46.4121 95.0449 46.3516 95.2559 46.3516C95.4629 46.3516 95.6211 46.4121 95.7305 46.5332C95.8438 46.6543 95.9004 46.8027 95.9004 46.9785C95.9004 47.1465 95.8438 47.291 95.7305 47.4121C95.6211 47.5293 95.4629 47.5879 95.2559 47.5879C95.0449 47.5879 94.8848 47.5293 94.7754 47.4121C94.6699 47.291 94.6172 47.1465 94.6172 46.9785ZM98.6074 49.9199V55H97.5176V48.6602H98.5488L98.6074 49.9199ZM98.3848 51.5898L97.8809 51.5723C97.8848 51.1387 97.9414 50.7383 98.0508 50.3711C98.1602 50 98.3223 49.6777 98.5371 49.4043C98.752 49.1309 99.0195 48.9199 99.3398 48.7715C99.6602 48.6191 100.031 48.543 100.453 48.543C100.75 48.543 101.023 48.5859 101.273 48.6719C101.523 48.7539 101.74 48.8848 101.924 49.0645C102.107 49.2441 102.25 49.4746 102.352 49.7559C102.453 50.0371 102.504 50.377 102.504 50.7754V55H101.42V50.8281C101.42 50.4961 101.363 50.2305 101.25 50.0312C101.141 49.832 100.984 49.6875 100.781 49.5977C100.578 49.5039 100.34 49.457 100.066 49.457C99.7461 49.457 99.4785 49.5137 99.2637 49.627C99.0488 49.7402 98.877 49.8965 98.748 50.0957C98.6191 50.2949 98.5254 50.5234 98.4668 50.7812C98.4121 51.0352 98.3848 51.3047 98.3848 51.5898ZM102.492 50.9922L101.766 51.2148C101.77 50.8672 101.826 50.5332 101.936 50.2129C102.049 49.8926 102.211 49.6074 102.422 49.3574C102.637 49.1074 102.9 48.9102 103.213 48.7656C103.525 48.6172 103.883 48.543 104.285 48.543C104.625 48.543 104.926 48.5879 105.188 48.6777C105.453 48.7676 105.676 48.9062 105.855 49.0938C106.039 49.2773 106.178 49.5137 106.271 49.8027C106.365 50.0918 106.412 50.4355 106.412 50.834V55H105.322V50.8223C105.322 50.4668 105.266 50.1914 105.152 49.9961C105.043 49.7969 104.887 49.6582 104.684 49.5801C104.484 49.498 104.246 49.457 103.969 49.457C103.73 49.457 103.52 49.498 103.336 49.5801C103.152 49.6621 102.998 49.7754 102.873 49.9199C102.748 50.0605 102.652 50.2227 102.586 50.4062C102.523 50.5898 102.492 50.7852 102.492 50.9922ZM111.791 53.916V50.6523C111.791 50.4023 111.74 50.1855 111.639 50.002C111.541 49.8145 111.393 49.6699 111.193 49.5684C110.994 49.4668 110.748 49.416 110.455 49.416C110.182 49.416 109.941 49.4629 109.734 49.5566C109.531 49.6504 109.371 49.7734 109.254 49.9258C109.141 50.0781 109.084 50.2422 109.084 50.418H108C108 50.1914 108.059 49.9668 108.176 49.7441C108.293 49.5215 108.461 49.3203 108.68 49.1406C108.902 48.957 109.168 48.8125 109.477 48.707C109.789 48.5977 110.137 48.543 110.52 48.543C110.98 48.543 111.387 48.6211 111.738 48.7773C112.094 48.9336 112.371 49.1699 112.57 49.4863C112.773 49.7988 112.875 50.1914 112.875 50.6641V53.6172C112.875 53.8281 112.893 54.0527 112.928 54.291C112.967 54.5293 113.023 54.7344 113.098 54.9062V55H111.967C111.912 54.875 111.869 54.709 111.838 54.502C111.807 54.291 111.791 54.0957 111.791 53.916ZM111.979 51.1562L111.99 51.918H110.895C110.586 51.918 110.311 51.9434 110.068 51.9941C109.826 52.041 109.623 52.1133 109.459 52.2109C109.295 52.3086 109.17 52.4316 109.084 52.5801C108.998 52.7246 108.955 52.8945 108.955 53.0898C108.955 53.2891 109 53.4707 109.09 53.6348C109.18 53.7988 109.314 53.9297 109.494 54.0273C109.678 54.1211 109.902 54.168 110.168 54.168C110.5 54.168 110.793 54.0977 111.047 53.957C111.301 53.8164 111.502 53.6445 111.65 53.4414C111.803 53.2383 111.885 53.041 111.896 52.8496L112.359 53.3711C112.332 53.5352 112.258 53.7168 112.137 53.916C112.016 54.1152 111.854 54.3066 111.65 54.4902C111.451 54.6699 111.213 54.8203 110.936 54.9414C110.662 55.0586 110.354 55.1172 110.01 55.1172C109.58 55.1172 109.203 55.0332 108.879 54.8652C108.559 54.6973 108.309 54.4727 108.129 54.1914C107.953 53.9062 107.865 53.5879 107.865 53.2363C107.865 52.8965 107.932 52.5977 108.064 52.3398C108.197 52.0781 108.389 51.8613 108.639 51.6895C108.889 51.5137 109.189 51.3809 109.541 51.291C109.893 51.2012 110.285 51.1562 110.719 51.1562H111.979ZM118.688 48.6602H119.672V54.8652C119.672 55.4238 119.559 55.9004 119.332 56.2949C119.105 56.6895 118.789 56.9883 118.383 57.1914C117.98 57.3984 117.516 57.502 116.988 57.502C116.77 57.502 116.512 57.4668 116.215 57.3965C115.922 57.3301 115.633 57.2148 115.348 57.0508C115.066 56.8906 114.83 56.6738 114.639 56.4004L115.207 55.7559C115.473 56.0762 115.75 56.2988 116.039 56.4238C116.332 56.5488 116.621 56.6113 116.906 56.6113C117.25 56.6113 117.547 56.5469 117.797 56.418C118.047 56.2891 118.24 56.0977 118.377 55.8438C118.518 55.5938 118.588 55.2852 118.588 54.918V50.0547L118.688 48.6602ZM114.322 51.9004V51.7773C114.322 51.293 114.379 50.8535 114.492 50.459C114.609 50.0605 114.775 49.7188 114.99 49.4336C115.209 49.1484 115.473 48.9297 115.781 48.7773C116.09 48.6211 116.438 48.543 116.824 48.543C117.223 48.543 117.57 48.6133 117.867 48.7539C118.168 48.8906 118.422 49.0918 118.629 49.3574C118.84 49.6191 119.006 49.9355 119.127 50.3066C119.248 50.6777 119.332 51.0977 119.379 51.5664V52.1055C119.336 52.5703 119.252 52.9883 119.127 53.3594C119.006 53.7305 118.84 54.0469 118.629 54.3086C118.422 54.5703 118.168 54.7715 117.867 54.9121C117.566 55.0488 117.215 55.1172 116.812 55.1172C116.434 55.1172 116.09 55.0371 115.781 54.877C115.477 54.7168 115.215 54.4922 114.996 54.2031C114.777 53.9141 114.609 53.5742 114.492 53.1836C114.379 52.7891 114.322 52.3613 114.322 51.9004ZM115.406 51.7773V51.9004C115.406 52.2168 115.438 52.5137 115.5 52.791C115.566 53.0684 115.666 53.3125 115.799 53.5234C115.936 53.7344 116.109 53.9004 116.32 54.0215C116.531 54.1387 116.783 54.1973 117.076 54.1973C117.436 54.1973 117.732 54.1211 117.967 53.9688C118.201 53.8164 118.387 53.6152 118.523 53.3652C118.664 53.1152 118.773 52.8438 118.852 52.5508V51.1387C118.809 50.9238 118.742 50.7168 118.652 50.5176C118.566 50.3145 118.453 50.1348 118.312 49.9785C118.176 49.8184 118.006 49.6914 117.803 49.5977C117.6 49.5039 117.361 49.457 117.088 49.457C116.791 49.457 116.535 49.5195 116.32 49.6445C116.109 49.7656 115.936 49.9336 115.799 50.1484C115.666 50.3594 115.566 50.6055 115.5 50.8867C115.438 51.1641 115.406 51.4609 115.406 51.7773ZM123.949 55.1172C123.508 55.1172 123.107 55.043 122.748 54.8945C122.393 54.7422 122.086 54.5293 121.828 54.2559C121.574 53.9824 121.379 53.6582 121.242 53.2832C121.105 52.9082 121.037 52.498 121.037 52.0527V51.8066C121.037 51.291 121.113 50.832 121.266 50.4297C121.418 50.0234 121.625 49.6797 121.887 49.3984C122.148 49.1172 122.445 48.9043 122.777 48.7598C123.109 48.6152 123.453 48.543 123.809 48.543C124.262 48.543 124.652 48.6211 124.98 48.7773C125.312 48.9336 125.584 49.1523 125.795 49.4336C126.006 49.7109 126.162 50.0391 126.264 50.418C126.365 50.793 126.416 51.2031 126.416 51.6484V52.1348H121.682V51.25H125.332V51.168C125.316 50.8867 125.258 50.6133 125.156 50.3477C125.059 50.082 124.902 49.8633 124.688 49.6914C124.473 49.5195 124.18 49.4336 123.809 49.4336C123.562 49.4336 123.336 49.4863 123.129 49.5918C122.922 49.6934 122.744 49.8457 122.596 50.0488C122.447 50.252 122.332 50.5 122.25 50.793C122.168 51.0859 122.127 51.4238 122.127 51.8066V52.0527C122.127 52.3535 122.168 52.6367 122.25 52.9023C122.336 53.1641 122.459 53.3945 122.619 53.5938C122.783 53.793 122.98 53.9492 123.211 54.0625C123.445 54.1758 123.711 54.2324 124.008 54.2324C124.391 54.2324 124.715 54.1543 124.98 53.998C125.246 53.8418 125.479 53.6328 125.678 53.3711L126.334 53.8926C126.197 54.0996 126.023 54.2969 125.812 54.4844C125.602 54.6719 125.342 54.8242 125.033 54.9414C124.729 55.0586 124.367 55.1172 123.949 55.1172Z" fill="black"/>
<path d="M64 0V32" stroke="#6F6F6F" stroke-width="4"/>
<line x1="48" y1="16" x2="80" y2="16" stroke="#6F6F6F" stroke-width="4"/>
</svg>
