<svg width="320" height="180" viewBox="0 0 320 180" fill="none" xmlns="http://www.w3.org/2000/svg">
<path d="M103.141 119.287H104.266C104.207 119.826 104.053 120.309 103.803 120.734C103.553 121.16 103.199 121.498 102.742 121.748C102.285 121.994 101.715 122.117 101.031 122.117C100.531 122.117 100.076 122.023 99.666 121.836C99.2598 121.648 98.9102 121.383 98.6172 121.039C98.3242 120.691 98.0977 120.275 97.9375 119.791C97.7812 119.303 97.7031 118.76 97.7031 118.162V117.312C97.7031 116.715 97.7812 116.174 97.9375 115.689C98.0977 115.201 98.3262 114.783 98.623 114.436C98.9238 114.088 99.2852 113.82 99.707 113.633C100.129 113.445 100.604 113.352 101.131 113.352C101.775 113.352 102.32 113.473 102.766 113.715C103.211 113.957 103.557 114.293 103.803 114.723C104.053 115.148 104.207 115.643 104.266 116.205H103.141C103.086 115.807 102.984 115.465 102.836 115.18C102.688 114.891 102.477 114.668 102.203 114.512C101.93 114.355 101.572 114.277 101.131 114.277C100.752 114.277 100.418 114.35 100.129 114.494C99.8438 114.639 99.6035 114.844 99.4082 115.109C99.2168 115.375 99.0723 115.693 98.9746 116.064C98.877 116.436 98.8281 116.848 98.8281 117.301V118.162C98.8281 118.58 98.8711 118.973 98.957 119.34C99.0469 119.707 99.1816 120.029 99.3613 120.307C99.541 120.584 99.7695 120.803 100.047 120.963C100.324 121.119 100.652 121.197 101.031 121.197C101.512 121.197 101.895 121.121 102.18 120.969C102.465 120.816 102.68 120.598 102.824 120.312C102.973 120.027 103.078 119.686 103.141 119.287ZM106.82 113V122H105.73V113H106.82ZM109.738 115.66V122H108.648V115.66H109.738ZM108.566 113.979C108.566 113.803 108.619 113.654 108.725 113.533C108.834 113.412 108.994 113.352 109.205 113.352C109.412 113.352 109.57 113.412 109.68 113.533C109.793 113.654 109.85 113.803 109.85 113.979C109.85 114.146 109.793 114.291 109.68 114.412C109.57 114.529 109.412 114.588 109.205 114.588C108.994 114.588 108.834 114.529 108.725 114.412C108.619 114.291 108.566 114.146 108.566 113.979ZM114.016 121.227C114.273 121.227 114.512 121.174 114.73 121.068C114.949 120.963 115.129 120.818 115.27 120.635C115.41 120.447 115.49 120.234 115.51 119.996H116.541C116.521 120.371 116.395 120.721 116.16 121.045C115.93 121.365 115.627 121.625 115.252 121.824C114.877 122.02 114.465 122.117 114.016 122.117C113.539 122.117 113.123 122.033 112.768 121.865C112.416 121.697 112.123 121.467 111.889 121.174C111.658 120.881 111.484 120.545 111.367 120.166C111.254 119.783 111.197 119.379 111.197 118.953V118.707C111.197 118.281 111.254 117.879 111.367 117.5C111.484 117.117 111.658 116.779 111.889 116.486C112.123 116.193 112.416 115.963 112.768 115.795C113.123 115.627 113.539 115.543 114.016 115.543C114.512 115.543 114.945 115.645 115.316 115.848C115.688 116.047 115.979 116.32 116.189 116.668C116.404 117.012 116.521 117.402 116.541 117.84H115.51C115.49 117.578 115.416 117.342 115.287 117.131C115.162 116.92 114.99 116.752 114.771 116.627C114.557 116.498 114.305 116.434 114.016 116.434C113.684 116.434 113.404 116.5 113.178 116.633C112.955 116.762 112.777 116.938 112.645 117.16C112.516 117.379 112.422 117.623 112.363 117.893C112.309 118.158 112.281 118.43 112.281 118.707V118.953C112.281 119.23 112.309 119.504 112.363 119.773C112.418 120.043 112.51 120.287 112.639 120.506C112.771 120.725 112.949 120.9 113.172 121.033C113.398 121.162 113.68 121.227 114.016 121.227ZM118.85 113V122H117.76V113H118.85ZM122.723 115.66L119.957 118.619L118.41 120.225L118.322 119.07L119.43 117.746L121.398 115.66H122.723ZM121.732 122L119.471 118.977L120.033 118.01L123.01 122H121.732ZM129.473 115.66V116.492H126.045V115.66H129.473ZM127.205 114.119H128.289V120.43C128.289 120.645 128.322 120.807 128.389 120.916C128.455 121.025 128.541 121.098 128.646 121.133C128.752 121.168 128.865 121.186 128.986 121.186C129.076 121.186 129.17 121.178 129.268 121.162C129.369 121.143 129.445 121.127 129.496 121.115L129.502 122C129.416 122.027 129.303 122.053 129.162 122.076C129.025 122.104 128.859 122.117 128.664 122.117C128.398 122.117 128.154 122.064 127.932 121.959C127.709 121.854 127.531 121.678 127.398 121.432C127.27 121.182 127.205 120.846 127.205 120.424V114.119ZM130.34 118.9V118.766C130.34 118.309 130.406 117.885 130.539 117.494C130.672 117.1 130.863 116.758 131.113 116.469C131.363 116.176 131.666 115.949 132.021 115.789C132.377 115.625 132.775 115.543 133.217 115.543C133.662 115.543 134.062 115.625 134.418 115.789C134.777 115.949 135.082 116.176 135.332 116.469C135.586 116.758 135.779 117.1 135.912 117.494C136.045 117.885 136.111 118.309 136.111 118.766V118.9C136.111 119.357 136.045 119.781 135.912 120.172C135.779 120.562 135.586 120.904 135.332 121.197C135.082 121.486 134.779 121.713 134.424 121.877C134.072 122.037 133.674 122.117 133.229 122.117C132.783 122.117 132.383 122.037 132.027 121.877C131.672 121.713 131.367 121.486 131.113 121.197C130.863 120.904 130.672 120.562 130.539 120.172C130.406 119.781 130.34 119.357 130.34 118.9ZM131.424 118.766V118.9C131.424 119.217 131.461 119.516 131.535 119.797C131.609 120.074 131.721 120.32 131.869 120.535C132.021 120.75 132.211 120.92 132.438 121.045C132.664 121.166 132.928 121.227 133.229 121.227C133.525 121.227 133.785 121.166 134.008 121.045C134.234 120.92 134.422 120.75 134.57 120.535C134.719 120.32 134.83 120.074 134.904 119.797C134.982 119.516 135.021 119.217 135.021 118.9V118.766C135.021 118.453 134.982 118.158 134.904 117.881C134.83 117.6 134.717 117.352 134.564 117.137C134.416 116.918 134.229 116.746 134.002 116.621C133.779 116.496 133.518 116.434 133.217 116.434C132.92 116.434 132.658 116.496 132.432 116.621C132.209 116.746 132.021 116.918 131.869 117.137C131.721 117.352 131.609 117.6 131.535 117.881C131.461 118.158 131.424 118.453 131.424 118.766ZM144.139 120.318C144.139 120.162 144.104 120.018 144.033 119.885C143.967 119.748 143.828 119.625 143.617 119.516C143.41 119.402 143.098 119.305 142.68 119.223C142.328 119.148 142.01 119.061 141.725 118.959C141.443 118.857 141.203 118.734 141.004 118.59C140.809 118.445 140.658 118.275 140.553 118.08C140.447 117.885 140.395 117.656 140.395 117.395C140.395 117.145 140.449 116.908 140.559 116.686C140.672 116.463 140.83 116.266 141.033 116.094C141.24 115.922 141.488 115.787 141.777 115.689C142.066 115.592 142.389 115.543 142.744 115.543C143.252 115.543 143.686 115.633 144.045 115.812C144.404 115.992 144.68 116.232 144.871 116.533C145.062 116.83 145.158 117.16 145.158 117.523H144.074C144.074 117.348 144.021 117.178 143.916 117.014C143.814 116.846 143.664 116.707 143.465 116.598C143.27 116.488 143.029 116.434 142.744 116.434C142.443 116.434 142.199 116.48 142.012 116.574C141.828 116.664 141.693 116.779 141.607 116.92C141.525 117.061 141.484 117.209 141.484 117.365C141.484 117.482 141.504 117.588 141.543 117.682C141.586 117.771 141.66 117.855 141.766 117.934C141.871 118.008 142.02 118.078 142.211 118.145C142.402 118.211 142.646 118.277 142.943 118.344C143.463 118.461 143.891 118.602 144.227 118.766C144.562 118.93 144.812 119.131 144.977 119.369C145.141 119.607 145.223 119.896 145.223 120.236C145.223 120.514 145.164 120.768 145.047 120.998C144.934 121.229 144.768 121.428 144.549 121.596C144.334 121.76 144.076 121.889 143.775 121.982C143.479 122.072 143.145 122.117 142.773 122.117C142.215 122.117 141.742 122.018 141.355 121.818C140.969 121.619 140.676 121.361 140.477 121.045C140.277 120.729 140.178 120.395 140.178 120.043H141.268C141.283 120.34 141.369 120.576 141.525 120.752C141.682 120.924 141.873 121.047 142.1 121.121C142.326 121.191 142.551 121.227 142.773 121.227C143.07 121.227 143.318 121.188 143.518 121.109C143.721 121.031 143.875 120.924 143.98 120.787C144.086 120.65 144.139 120.494 144.139 120.318ZM149.277 122.117C148.836 122.117 148.436 122.043 148.076 121.895C147.721 121.742 147.414 121.529 147.156 121.256C146.902 120.982 146.707 120.658 146.57 120.283C146.434 119.908 146.365 119.498 146.365 119.053V118.807C146.365 118.291 146.441 117.832 146.594 117.43C146.746 117.023 146.953 116.68 147.215 116.398C147.477 116.117 147.773 115.904 148.105 115.76C148.438 115.615 148.781 115.543 149.137 115.543C149.59 115.543 149.98 115.621 150.309 115.777C150.641 115.934 150.912 116.152 151.123 116.434C151.334 116.711 151.49 117.039 151.592 117.418C151.693 117.793 151.744 118.203 151.744 118.648V119.135H147.01V118.25H150.66V118.168C150.645 117.887 150.586 117.613 150.484 117.348C150.387 117.082 150.23 116.863 150.016 116.691C149.801 116.52 149.508 116.434 149.137 116.434C148.891 116.434 148.664 116.486 148.457 116.592C148.25 116.693 148.072 116.846 147.924 117.049C147.775 117.252 147.66 117.5 147.578 117.793C147.496 118.086 147.455 118.424 147.455 118.807V119.053C147.455 119.354 147.496 119.637 147.578 119.902C147.664 120.164 147.787 120.395 147.947 120.594C148.111 120.793 148.309 120.949 148.539 121.062C148.773 121.176 149.039 121.232 149.336 121.232C149.719 121.232 150.043 121.154 150.309 120.998C150.574 120.842 150.807 120.633 151.006 120.371L151.662 120.893C151.525 121.1 151.352 121.297 151.141 121.484C150.93 121.672 150.67 121.824 150.361 121.941C150.057 122.059 149.695 122.117 149.277 122.117ZM154.188 113V122H153.098V113H154.188ZM158.559 122.117C158.117 122.117 157.717 122.043 157.357 121.895C157.002 121.742 156.695 121.529 156.438 121.256C156.184 120.982 155.988 120.658 155.852 120.283C155.715 119.908 155.646 119.498 155.646 119.053V118.807C155.646 118.291 155.723 117.832 155.875 117.43C156.027 117.023 156.234 116.68 156.496 116.398C156.758 116.117 157.055 115.904 157.387 115.76C157.719 115.615 158.062 115.543 158.418 115.543C158.871 115.543 159.262 115.621 159.59 115.777C159.922 115.934 160.193 116.152 160.404 116.434C160.615 116.711 160.771 117.039 160.873 117.418C160.975 117.793 161.025 118.203 161.025 118.648V119.135H156.291V118.25H159.941V118.168C159.926 117.887 159.867 117.613 159.766 117.348C159.668 117.082 159.512 116.863 159.297 116.691C159.082 116.52 158.789 116.434 158.418 116.434C158.172 116.434 157.945 116.486 157.738 116.592C157.531 116.693 157.354 116.846 157.205 117.049C157.057 117.252 156.941 117.5 156.859 117.793C156.777 118.086 156.736 118.424 156.736 118.807V119.053C156.736 119.354 156.777 119.637 156.859 119.902C156.945 120.164 157.068 120.395 157.229 120.594C157.393 120.793 157.59 120.949 157.82 121.062C158.055 121.176 158.32 121.232 158.617 121.232C159 121.232 159.324 121.154 159.59 120.998C159.855 120.842 160.088 120.633 160.287 120.371L160.943 120.893C160.807 121.1 160.633 121.297 160.422 121.484C160.211 121.672 159.951 121.824 159.643 121.941C159.338 122.059 158.977 122.117 158.559 122.117ZM164.828 121.227C165.086 121.227 165.324 121.174 165.543 121.068C165.762 120.963 165.941 120.818 166.082 120.635C166.223 120.447 166.303 120.234 166.322 119.996H167.354C167.334 120.371 167.207 120.721 166.973 121.045C166.742 121.365 166.439 121.625 166.064 121.824C165.689 122.02 165.277 122.117 164.828 122.117C164.352 122.117 163.936 122.033 163.58 121.865C163.229 121.697 162.936 121.467 162.701 121.174C162.471 120.881 162.297 120.545 162.18 120.166C162.066 119.783 162.01 119.379 162.01 118.953V118.707C162.01 118.281 162.066 117.879 162.18 117.5C162.297 117.117 162.471 116.779 162.701 116.486C162.936 116.193 163.229 115.963 163.58 115.795C163.936 115.627 164.352 115.543 164.828 115.543C165.324 115.543 165.758 115.645 166.129 115.848C166.5 116.047 166.791 116.32 167.002 116.668C167.217 117.012 167.334 117.402 167.354 117.84H166.322C166.303 117.578 166.229 117.342 166.1 117.131C165.975 116.92 165.803 116.752 165.584 116.627C165.369 116.498 165.117 116.434 164.828 116.434C164.496 116.434 164.217 116.5 163.99 116.633C163.768 116.762 163.59 116.938 163.457 117.16C163.328 117.379 163.234 117.623 163.176 117.893C163.121 118.158 163.094 118.43 163.094 118.707V118.953C163.094 119.23 163.121 119.504 163.176 119.773C163.23 120.043 163.322 120.287 163.451 120.506C163.584 120.725 163.762 120.9 163.984 121.033C164.211 121.162 164.492 121.227 164.828 121.227ZM171.227 115.66V116.492H167.799V115.66H171.227ZM168.959 114.119H170.043V120.43C170.043 120.645 170.076 120.807 170.143 120.916C170.209 121.025 170.295 121.098 170.4 121.133C170.506 121.168 170.619 121.186 170.74 121.186C170.83 121.186 170.924 121.178 171.021 121.162C171.123 121.143 171.199 121.127 171.25 121.115L171.256 122C171.17 122.027 171.057 122.053 170.916 122.076C170.779 122.104 170.613 122.117 170.418 122.117C170.152 122.117 169.908 122.064 169.686 121.959C169.463 121.854 169.285 121.678 169.152 121.432C169.023 121.182 168.959 120.846 168.959 120.424V114.119ZM179.213 120.916V117.652C179.213 117.402 179.162 117.186 179.061 117.002C178.963 116.814 178.814 116.67 178.615 116.568C178.416 116.467 178.17 116.416 177.877 116.416C177.604 116.416 177.363 116.463 177.156 116.557C176.953 116.65 176.793 116.773 176.676 116.926C176.562 117.078 176.506 117.242 176.506 117.418H175.422C175.422 117.191 175.48 116.967 175.598 116.744C175.715 116.521 175.883 116.32 176.102 116.141C176.324 115.957 176.59 115.812 176.898 115.707C177.211 115.598 177.559 115.543 177.941 115.543C178.402 115.543 178.809 115.621 179.16 115.777C179.516 115.934 179.793 116.17 179.992 116.486C180.195 116.799 180.297 117.191 180.297 117.664V120.617C180.297 120.828 180.314 121.053 180.35 121.291C180.389 121.529 180.445 121.734 180.52 121.906V122H179.389C179.334 121.875 179.291 121.709 179.26 121.502C179.229 121.291 179.213 121.096 179.213 120.916ZM179.4 118.156L179.412 118.918H178.316C178.008 118.918 177.732 118.943 177.49 118.994C177.248 119.041 177.045 119.113 176.881 119.211C176.717 119.309 176.592 119.432 176.506 119.58C176.42 119.725 176.377 119.895 176.377 120.09C176.377 120.289 176.422 120.471 176.512 120.635C176.602 120.799 176.736 120.93 176.916 121.027C177.1 121.121 177.324 121.168 177.59 121.168C177.922 121.168 178.215 121.098 178.469 120.957C178.723 120.816 178.924 120.645 179.072 120.441C179.225 120.238 179.307 120.041 179.318 119.85L179.781 120.371C179.754 120.535 179.68 120.717 179.559 120.916C179.438 121.115 179.275 121.307 179.072 121.49C178.873 121.67 178.635 121.82 178.357 121.941C178.084 122.059 177.775 122.117 177.432 122.117C177.002 122.117 176.625 122.033 176.301 121.865C175.98 121.697 175.73 121.473 175.551 121.191C175.375 120.906 175.287 120.588 175.287 120.236C175.287 119.896 175.354 119.598 175.486 119.34C175.619 119.078 175.811 118.861 176.061 118.689C176.311 118.514 176.611 118.381 176.963 118.291C177.314 118.201 177.707 118.156 178.141 118.156H179.4ZM183.086 117.014V122H182.002V115.66H183.027L183.086 117.014ZM182.828 118.59L182.377 118.572C182.381 118.139 182.445 117.738 182.57 117.371C182.695 117 182.871 116.678 183.098 116.404C183.324 116.131 183.594 115.92 183.906 115.771C184.223 115.619 184.572 115.543 184.955 115.543C185.268 115.543 185.549 115.586 185.799 115.672C186.049 115.754 186.262 115.887 186.438 116.07C186.617 116.254 186.754 116.492 186.848 116.785C186.941 117.074 186.988 117.428 186.988 117.846V122H185.898V117.834C185.898 117.502 185.85 117.236 185.752 117.037C185.654 116.834 185.512 116.688 185.324 116.598C185.137 116.504 184.906 116.457 184.633 116.457C184.363 116.457 184.117 116.514 183.895 116.627C183.676 116.74 183.486 116.896 183.326 117.096C183.17 117.295 183.047 117.523 182.957 117.781C182.871 118.035 182.828 118.305 182.828 118.59ZM192.789 115.66V122H191.699V115.66H192.789ZM191.617 113.979C191.617 113.803 191.67 113.654 191.775 113.533C191.885 113.412 192.045 113.352 192.256 113.352C192.463 113.352 192.621 113.412 192.73 113.533C192.844 113.654 192.9 113.803 192.9 113.979C192.9 114.146 192.844 114.291 192.73 114.412C192.621 114.529 192.463 114.588 192.256 114.588C192.045 114.588 191.885 114.529 191.775 114.412C191.67 114.291 191.617 114.146 191.617 113.979ZM195.607 116.92V122H194.518V115.66H195.549L195.607 116.92ZM195.385 118.59L194.881 118.572C194.885 118.139 194.941 117.738 195.051 117.371C195.16 117 195.322 116.678 195.537 116.404C195.752 116.131 196.02 115.92 196.34 115.771C196.66 115.619 197.031 115.543 197.453 115.543C197.75 115.543 198.023 115.586 198.273 115.672C198.523 115.754 198.74 115.885 198.924 116.064C199.107 116.244 199.25 116.475 199.352 116.756C199.453 117.037 199.504 117.377 199.504 117.775V122H198.42V117.828C198.42 117.496 198.363 117.23 198.25 117.031C198.141 116.832 197.984 116.688 197.781 116.598C197.578 116.504 197.34 116.457 197.066 116.457C196.746 116.457 196.479 116.514 196.264 116.627C196.049 116.74 195.877 116.896 195.748 117.096C195.619 117.295 195.525 117.523 195.467 117.781C195.412 118.035 195.385 118.305 195.385 118.59ZM199.492 117.992L198.766 118.215C198.77 117.867 198.826 117.533 198.936 117.213C199.049 116.893 199.211 116.607 199.422 116.357C199.637 116.107 199.9 115.91 200.213 115.766C200.525 115.617 200.883 115.543 201.285 115.543C201.625 115.543 201.926 115.588 202.188 115.678C202.453 115.768 202.676 115.906 202.855 116.094C203.039 116.277 203.178 116.514 203.271 116.803C203.365 117.092 203.412 117.436 203.412 117.834V122H202.322V117.822C202.322 117.467 202.266 117.191 202.152 116.996C202.043 116.797 201.887 116.658 201.684 116.58C201.484 116.498 201.246 116.457 200.969 116.457C200.73 116.457 200.52 116.498 200.336 116.58C200.152 116.662 199.998 116.775 199.873 116.92C199.748 117.061 199.652 117.223 199.586 117.406C199.523 117.59 199.492 117.785 199.492 117.992ZM208.791 120.916V117.652C208.791 117.402 208.74 117.186 208.639 117.002C208.541 116.814 208.393 116.67 208.193 116.568C207.994 116.467 207.748 116.416 207.455 116.416C207.182 116.416 206.941 116.463 206.734 116.557C206.531 116.65 206.371 116.773 206.254 116.926C206.141 117.078 206.084 117.242 206.084 117.418H205C205 117.191 205.059 116.967 205.176 116.744C205.293 116.521 205.461 116.32 205.68 116.141C205.902 115.957 206.168 115.812 206.477 115.707C206.789 115.598 207.137 115.543 207.52 115.543C207.98 115.543 208.387 115.621 208.738 115.777C209.094 115.934 209.371 116.17 209.57 116.486C209.773 116.799 209.875 117.191 209.875 117.664V120.617C209.875 120.828 209.893 121.053 209.928 121.291C209.967 121.529 210.023 121.734 210.098 121.906V122H208.967C208.912 121.875 208.869 121.709 208.838 121.502C208.807 121.291 208.791 121.096 208.791 120.916ZM208.979 118.156L208.99 118.918H207.895C207.586 118.918 207.311 118.943 207.068 118.994C206.826 119.041 206.623 119.113 206.459 119.211C206.295 119.309 206.17 119.432 206.084 119.58C205.998 119.725 205.955 119.895 205.955 120.09C205.955 120.289 206 120.471 206.09 120.635C206.18 120.799 206.314 120.93 206.494 121.027C206.678 121.121 206.902 121.168 207.168 121.168C207.5 121.168 207.793 121.098 208.047 120.957C208.301 120.816 208.502 120.645 208.65 120.441C208.803 120.238 208.885 120.041 208.896 119.85L209.359 120.371C209.332 120.535 209.258 120.717 209.137 120.916C209.016 121.115 208.854 121.307 208.65 121.49C208.451 121.67 208.213 121.82 207.936 121.941C207.662 122.059 207.354 122.117 207.01 122.117C206.58 122.117 206.203 122.033 205.879 121.865C205.559 121.697 205.309 121.473 205.129 121.191C204.953 120.906 204.865 120.588 204.865 120.236C204.865 119.896 204.932 119.598 205.064 119.34C205.197 119.078 205.389 118.861 205.639 118.689C205.889 118.514 206.189 118.381 206.541 118.291C206.893 118.201 207.285 118.156 207.719 118.156H208.979ZM215.688 115.66H216.672V121.865C216.672 122.424 216.559 122.9 216.332 123.295C216.105 123.689 215.789 123.988 215.383 124.191C214.98 124.398 214.516 124.502 213.988 124.502C213.77 124.502 213.512 124.467 213.215 124.396C212.922 124.33 212.633 124.215 212.348 124.051C212.066 123.891 211.83 123.674 211.639 123.4L212.207 122.756C212.473 123.076 212.75 123.299 213.039 123.424C213.332 123.549 213.621 123.611 213.906 123.611C214.25 123.611 214.547 123.547 214.797 123.418C215.047 123.289 215.24 123.098 215.377 122.844C215.518 122.594 215.588 122.285 215.588 121.918V117.055L215.688 115.66ZM211.322 118.9V118.777C211.322 118.293 211.379 117.854 211.492 117.459C211.609 117.061 211.775 116.719 211.99 116.434C212.209 116.148 212.473 115.93 212.781 115.777C213.09 115.621 213.438 115.543 213.824 115.543C214.223 115.543 214.57 115.613 214.867 115.754C215.168 115.891 215.422 116.092 215.629 116.357C215.84 116.619 216.006 116.936 216.127 117.307C216.248 117.678 216.332 118.098 216.379 118.566V119.105C216.336 119.57 216.252 119.988 216.127 120.359C216.006 120.73 215.84 121.047 215.629 121.309C215.422 121.57 215.168 121.771 214.867 121.912C214.566 122.049 214.215 122.117 213.812 122.117C213.434 122.117 213.09 122.037 212.781 121.877C212.477 121.717 212.215 121.492 211.996 121.203C211.777 120.914 211.609 120.574 211.492 120.184C211.379 119.789 211.322 119.361 211.322 118.9ZM212.406 118.777V118.9C212.406 119.217 212.438 119.514 212.5 119.791C212.566 120.068 212.666 120.312 212.799 120.523C212.936 120.734 213.109 120.9 213.32 121.021C213.531 121.139 213.783 121.197 214.076 121.197C214.436 121.197 214.732 121.121 214.967 120.969C215.201 120.816 215.387 120.615 215.523 120.365C215.664 120.115 215.773 119.844 215.852 119.551V118.139C215.809 117.924 215.742 117.717 215.652 117.518C215.566 117.314 215.453 117.135 215.312 116.979C215.176 116.818 215.006 116.691 214.803 116.598C214.6 116.504 214.361 116.457 214.088 116.457C213.791 116.457 213.535 116.52 213.32 116.645C213.109 116.766 212.936 116.934 212.799 117.148C212.666 117.359 212.566 117.605 212.5 117.887C212.438 118.164 212.406 118.461 212.406 118.777ZM220.949 122.117C220.508 122.117 220.107 122.043 219.748 121.895C219.393 121.742 219.086 121.529 218.828 121.256C218.574 120.982 218.379 120.658 218.242 120.283C218.105 119.908 218.037 119.498 218.037 119.053V118.807C218.037 118.291 218.113 117.832 218.266 117.43C218.418 117.023 218.625 116.68 218.887 116.398C219.148 116.117 219.445 115.904 219.777 115.76C220.109 115.615 220.453 115.543 220.809 115.543C221.262 115.543 221.652 115.621 221.98 115.777C222.312 115.934 222.584 116.152 222.795 116.434C223.006 116.711 223.162 117.039 223.264 117.418C223.365 117.793 223.416 118.203 223.416 118.648V119.135H218.682V118.25H222.332V118.168C222.316 117.887 222.258 117.613 222.156 117.348C222.059 117.082 221.902 116.863 221.688 116.691C221.473 116.52 221.18 116.434 220.809 116.434C220.562 116.434 220.336 116.486 220.129 116.592C219.922 116.693 219.744 116.846 219.596 117.049C219.447 117.252 219.332 117.5 219.25 117.793C219.168 118.086 219.127 118.424 219.127 118.807V119.053C219.127 119.354 219.168 119.637 219.25 119.902C219.336 120.164 219.459 120.395 219.619 120.594C219.783 120.793 219.98 120.949 220.211 121.062C220.445 121.176 220.711 121.232 221.008 121.232C221.391 121.232 221.715 121.154 221.98 120.998C222.246 120.842 222.479 120.633 222.678 120.371L223.334 120.893C223.197 121.1 223.023 121.297 222.812 121.484C222.602 121.672 222.342 121.824 222.033 121.941C221.729 122.059 221.367 122.117 220.949 122.117Z" fill="black"/>
<path d="M161 55V87" stroke="#6F6F6F" stroke-width="4"/>
<line x1="145" y1="71" x2="177" y2="71" stroke="#6F6F6F" stroke-width="4"/>
</svg>
